<?xml version="1.0" encoding="utf-8"?>
<!-- Generator: Adobe Illustrator 26.3.1, SVG Export Plug-In . SVG Version: 6.00 Build 0)  -->
<svg version="1.1" id="レイヤー_1" xmlns="http://www.w3.org/2000/svg" xmlns:xlink="http://www.w3.org/1999/xlink" x="0px"
	 y="0px" viewBox="0 0 240 42" style="enable-background:new 0 0 240 42;" xml:space="preserve">
<style type="text/css">
	.st0{fill:#FFFFFF;}
</style>
<g>
	<g>
		<polygon class="st0" points="44.8,19.2 43.8,16.3 42.9,19.2 39.8,19.2 42.3,21.1 41.4,24.1 43.8,22.3 46.4,24.1 45.5,21.1 
			48,19.2 		"/>
		<path class="st0" d="M63.2,16.1c-0.1,0.4-0.1,0.8-0.1,1.3c-0.4-0.1-0.8-0.3-1.1-0.7c-0.3-0.3-0.6-0.7-0.7-1.1
			c0.4,0,0.9-0.1,1.3-0.1l1.6-1.6l-5.8,0.7L48.3,24.9c-0.2,0.2-0.5,0.4-0.7,0.6c-2.4,1.8-5.8,1.6-7.9-0.6c-1.4-1.4-2.1-3.7-1.6-5.6
			l-3.4,3.3c0.4,1.8,1.3,3.3,2.6,4.7c1.8,1.8,4.2,2.8,6.8,2.8c2.6,0,5-1,6.8-2.8l8.6-8.6c0.1-0.4,0.1-0.8,0.1-1.3
			c0.4,0.1,0.8,0.3,1.1,0.7c0.3,0.3,0.6,0.7,0.7,1.1c-0.4,0-0.9,0.1-1.3,0.1l-8.6,8.6c-2,2-4.5,3.1-7.3,3.1c-2.8,0-5.4-1.1-7.3-3.1
			c-1.3-1.3-2.2-2.9-2.7-4.5l-2.7,2.7c0.7,1.6,1.7,3.1,3,4.3c2.8,2.8,6.4,4.2,10,4.1c3.4-0.1,7-1.4,9.6-4.1l10.2-10.2l0.8-5.6
			L63.2,16.1z M59.4,17.3c0-0.7-0.1-1.4-0.3-1.9c-0.1-0.3-0.3-0.5-0.4-0.7c0.3,0.3,0.6,0.4,1.1,0.6c0.4,0.2,0.9,0.3,1.4,0.3
			C61,16.3,60.1,17.2,59.4,17.3z M61.2,19.2c0.2-0.7,1.1-1.6,1.8-1.8c0,1,0.3,2,0.8,2.6C63.3,19.3,62.3,19.2,61.2,19.2z"/>
		<path class="st0" d="M39.6,16.3c0,0,0.5-0.4,0.7-0.6c2.4-1.8,5.8-1.6,7.9,0.6c1.4,1.4,2.1,3.7,1.6,5.6l3.3-3.3
			c-0.4-1.8-1.3-3.3-2.6-4.7c-1.7-1.9-4.1-2.9-6.6-2.9s-5,1-6.8,2.8l-8.7,8.7c-0.1,0.4-0.1,0.8-0.1,1.3c-0.4-0.1-0.8-0.3-1.1-0.7
			c-0.3-0.3-0.6-0.7-0.7-1.1c0.4,0,0.9-0.1,1.3-0.1l8.6-8.6c2-2,4.5-3.1,7.3-3.1s5.4,1.1,7.3,3.1c1.3,1.3,2.2,2.9,2.7,4.5l2.7-2.7
			c-0.7-1.6-1.7-3.1-3-4.3c-2.6-2.8-6.2-4.2-10-4.1c-3.4,0.1-7,1.4-9.6,4.1L23.8,21L23,26.8l1.6-1.6c0.1-0.4,0.1-0.8,0.1-1.3
			c0.4,0.1,0.8,0.3,1.1,0.7c0.3,0.3,0.6,0.7,0.7,1.1c-0.4,0-0.9,0.1-1.3,0.1l-1.6,1.6l5.8-0.8L39.6,16.3z M24.8,23.8
			c0-1-0.3-2-0.8-2.6c0.5,0.5,1.4,0.8,2.6,0.8C26.4,22.7,25.5,23.5,24.8,23.8z M28.1,25.8c-0.4-0.1-1-0.2-1.4-0.2
			c0.2-0.7,1.1-1.6,1.8-1.8c0,0.7,0.1,1.4,0.3,1.9c0.1,0.3,0.3,0.5,0.4,0.7C28.9,26.1,28.4,25.9,28.1,25.8z"/>
	</g>
	<g>
		<path class="st0" d="M76.4,12.3h3.8v16.5h-3.8V12.3z"/>
		<path class="st0" d="M92.7,15.5h-3.8v13.2h-3.8V15.5h-3.7v-3.3h11.3V15.5z"/>
		<path class="st0" d="M111,28.7h-3.9l-1-3.8h-3.8l-0.9,3.8h-3.8l4.3-16.5h4.8L111,28.7z M105.8,22.1l-0.7-3.3
			c-0.2-1-0.5-2.4-0.7-3.4l0,0c-0.2,1-0.5,2.5-0.7,3.4l-0.7,3.3H105.8z"/>
		<path class="st0" d="M122.6,24.9c0,1.4,0.1,2.8,0.1,3.9h-3.3l-0.2-1.5h-0.1c-0.5,0.7-1.6,1.7-3.3,1.7c-2.4,0-3.8-1.6-3.8-5.1v-7.1
			h3.8v6.6c0,1.6,0.5,2.5,1.5,2.5c0.7,0,1.5-0.6,1.5-1.8v-7.3h3.8L122.6,24.9L122.6,24.9z"/>
		<path class="st0" d="M125.4,14.5l3.7-1.1v3.3h2.5v2.7h-2.5V24c0,1.4,0.5,1.9,1.4,1.9c0.5,0,0.6,0,1-0.1v2.9
			c-0.5,0.2-1.3,0.3-2.3,0.3c-3.7,0-3.8-3.2-3.8-4.5v-5H124v-2.7h1.4L125.4,14.5L125.4,14.5z"/>
		<path class="st0" d="M143.6,22.7c0,4.7-3,6.3-5.6,6.3c-3.3,0-5.6-2.3-5.6-6.2c0-4.1,2.4-6.3,5.7-6.3
			C141.5,16.5,143.6,19.1,143.6,22.7z M138,19.2c-1.4,0-1.9,1.8-1.9,3.5c0,2,0.5,3.5,1.9,3.5c1.2,0,1.8-1.6,1.8-3.5
			C139.8,21,139.4,19.2,138,19.2z"/>
		<path class="st0" d="M162.2,28.7h-3.7v-6.7c0-1.5-0.4-2.5-1.4-2.5c-0.9,0-1.5,0.7-1.5,2v7.2h-3.7v-7c0-1.2-0.3-2.2-1.4-2.2
			c-0.5,0-1.5,0.5-1.5,2v7.2h-3.7v-8.1c0-1.4,0-2.7-0.1-3.8h3.2l0.2,1.5h0.1c0.5-0.7,1.6-1.7,3.3-1.7c1.4,0,2.5,0.7,3,1.8l0,0
			c0.5-0.7,1.5-1.8,3.4-1.8c2.4,0,3.7,1.7,3.7,5L162.2,28.7L162.2,28.7z"/>
		<path class="st0" d="M173.7,25.9c0,1.1,0,2.1,0.2,2.8h-3.3l-0.2-1.2h-0.1c-0.7,1-1.9,1.4-3.1,1.4c-2.2,0-3.6-1.6-3.6-3.7
			c0-3.2,2.8-4.5,6.4-4.6c0-0.9-0.4-1.5-1.9-1.5c-1.2,0-2.2,0.4-3,0.8l-0.7-2.4c0.7-0.5,2.4-1,4.4-1c4,0,5,2.5,5,5.2L173.7,25.9
			L173.7,25.9z M170.1,23.1c-1.5,0-2.9,0.5-2.9,1.8c0,1,0.6,1.4,1.3,1.4c0.7,0,1.6-0.5,1.6-1.7V23.1z"/>
		<path class="st0" d="M176.4,14.5l3.7-1.1v3.3h2.5v2.7h-2.5V24c0,1.4,0.5,1.9,1.4,1.9c0.5,0,0.6,0,1-0.1v2.9
			c-0.5,0.2-1.3,0.3-2.3,0.3c-3.7,0-3.8-3.2-3.8-4.5v-5h-1.4v-2.7h1.4V14.5L176.4,14.5z"/>
		<path class="st0" d="M186.1,15.4c-1.2,0-1.9-0.8-1.9-1.9c0-1.2,0.8-1.9,1.9-1.9c1.2,0,1.9,0.8,1.9,1.9S187.1,15.4,186.1,15.4z
			 M188,28.7h-3.8V16.8h3.8V28.7z"/>
		<path class="st0" d="M200.7,22.7c0,4.7-3,6.3-5.6,6.3c-3.3,0-5.6-2.3-5.6-6.2c0-4.1,2.4-6.3,5.7-6.3
			C198.6,16.5,200.7,19.1,200.7,22.7z M195.2,19.2c-1.4,0-1.9,1.8-1.9,3.5c0,2,0.5,3.5,1.9,3.5c1.2,0,1.8-1.6,1.8-3.5
			C196.9,21,196.5,19.2,195.2,19.2z"/>
		<path class="st0" d="M213,28.7h-3.8v-7c0-1.3-0.4-2.2-1.4-2.2c-0.8,0-1.6,0.5-1.6,2.1v7.1h-3.8v-8.1c0-1.4,0-2.7-0.1-3.8h3.3
			l0.2,1.5h0.1c0.5-0.8,1.6-1.7,3.3-1.7c2.5,0,3.9,1.8,3.9,5V28.7L213,28.7z"/>
	</g>
</g>
</svg>
