<?xml version="1.0" encoding="utf-8"?>
<!-- Generator: Adobe Illustrator 23.1.0, SVG Export Plug-In . SVG Version: 6.00 Build 0)  -->
<svg version="1.1" id="レイヤー_1" xmlns="http://www.w3.org/2000/svg" xmlns:xlink="http://www.w3.org/1999/xlink" x="0px"
	 y="0px" width="1202px" height="300px" viewBox="0 0 1202 300" style="enable-background:new 0 0 1202 300;" xml:space="preserve">
<style type="text/css">
	.st0{fill:none;}
	.st1{fill:#FFFFFF;}
	.st2{fill:#00325F;}
	.st3{fill:url(#SVGID_1_);}
	.st4{fill:url(#SVGID_2_);}
	.st5{fill:#8099AF;}
	.st6{fill:url(#SVGID_3_);}
	.st7{fill:url(#SVGID_4_);}
</style>
<rect class="st0" width="1202" height="300"/>
<g>
	<g>
		<path class="st1" d="M387.95,104.53c-1.54,6.49-9.6,14.52-16.11,16.06c-0.05-9.24-2.38-18.43-7.01-23.05
			C369.46,102.16,378.68,104.48,387.95,104.53z"/>
		<polygon class="st1" points="253.43,182.89 230.11,165.99 206.78,182.89 215.69,155.55 192.37,138.65 221.2,138.65 230.11,111.31 
			239.02,138.65 267.85,138.65 244.52,155.55 		"/>
		<path class="st1" d="M71.79,162.91c-1.54,6.49-9.6,14.53-16.11,16.06c-0.05-9.24-2.38-18.43-7.01-23.05
			C53.31,160.54,62.53,162.86,71.79,162.91z"/>
		<path class="st1" d="M48.67,202.6c4.63-4.62,6.97-13.81,7.01-23.05c3.25,0.77,6.9,3.14,9.93,6.16c3.03,3.02,5.41,6.65,6.18,9.9
			C62.53,195.65,53.31,197.98,48.67,202.6z"/>
		<path class="st1" d="M72.37,195.6c1.54-6.49,9.6-14.52,16.11-16.06c0.05,9.24,2.38,18.43,7.01,23.05
			C90.86,197.98,81.64,195.65,72.37,195.6z"/>
		<path class="st1" d="M88.48,178.97c-3.25-0.77-6.9-3.14-9.93-6.16c-3.03-3.02-5.41-6.65-6.18-9.9c9.27-0.05,18.49-2.37,23.12-6.99
			C90.86,160.54,88.52,169.73,88.48,178.97z"/>
		<path class="st1" d="M364.82,144.22c4.63-4.62,6.97-13.81,7.01-23.05c3.25,0.77,6.9,3.14,9.93,6.16c3.03,3.02,5.41,6.65,6.18,9.9
			C378.68,137.27,369.46,139.6,364.82,144.22z"/>
		<path class="st1" d="M388.52,137.23c1.54-6.49,9.6-14.52,16.11-16.06c0.05,9.24,2.38,18.43,7.01,23.05
			C407.01,139.6,397.79,137.27,388.52,137.23z"/>
		<path class="st1" d="M404.63,120.59c-3.25-0.77-6.9-3.14-9.93-6.16c-3.03-3.02-5.41-6.65-6.18-9.9
			c9.27-0.05,18.49-2.37,23.12-6.99C407.01,102.16,404.68,111.35,404.63,120.59z"/>
		<polygon class="st1" points="139.84,162.05 139.84,162.05 139.03,162.87 		"/>
		<path class="st2" d="M178.81,201.41c-28.17-28.33-28.17-74.35,0-102.69c28.33-28.17,74.35-28.17,102.69,0
			c28.17,28.33,28.17,74.35,0,102.69C253.17,229.58,207.15,229.58,178.81,201.41z M221.2,138.65h-28.83l23.32,16.9l-8.91,27.34
			l23.32-16.9l23.32,16.9l-8.91-27.34l23.32-16.9h-28.83l-8.91-27.34L221.2,138.65z"/>
		<linearGradient id="SVGID_1_" gradientUnits="userSpaceOnUse" x1="338.5688" y1="220.978" x2="209.7012" y2="92.1105">
			<stop  offset="0" style="stop-color:#00325F"/>
			<stop  offset="1" style="stop-color:#8099AF"/>
		</linearGradient>
		<path class="st3" d="M411.64,97.54c-4.63,4.62-6.97,13.81-7.01,23.05c0,0.19,0,0.38,0,0.57c0.05,9.24,2.38,18.43,7.01,23.05
			c-4.63-4.62-13.85-6.95-23.12-6.99c-0.19,0-0.38,0-0.58,0c-9.27,0.05-18.49,2.37-23.12,6.99l-70.27,70.06
			c-35.57,35.46-93.23,35.46-128.8,0c-14.73-14.68-23.35-33.14-25.88-52.26l-29.51,29.42c6.07,17.55,16.11,34.03,30.14,48.01
			c25.25,25.17,58.59,37.48,91.75,36.94c31.77-0.52,63.38-12.83,87.56-36.94l93.44-93.17l8.42-58.75L411.64,97.54z"/>
		<linearGradient id="SVGID_2_" gradientUnits="userSpaceOnUse" x1="326.0095" y1="183.2008" x2="222.3537" y2="79.545">
			<stop  offset="0" style="stop-color:#8099AF"/>
			<stop  offset="1" style="stop-color:#00325F"/>
		</linearGradient>
		<path class="st4" d="M362.75,95.93L269.3,189.1c-21.58,21.52-56.71,21.52-78.29,0s-21.58-56.54,0-78.06l-51.14,50.99
			c2.53,19.11,11.15,37.57,25.88,52.26c35.57,35.46,93.23,35.46,128.8,0l70.27-70.06c4.63-4.62,6.97-13.81,7.01-23.05
			c0-0.19,0-0.38,0-0.57c-0.05-9.24-2.38-18.43-7.01-23.05c4.63,4.62,13.85,6.95,23.12,6.99c0.19,0,0.38,0,0.58,0
			c9.27-0.05,18.49-2.37,23.12-6.99l10.03-10L362.75,95.93z"/>
		<path class="st5" d="M394.7,114.43c-3.03-3.02-5.41-6.65-6.18-9.9c-0.19,0-0.38,0-0.58,0c-1.54,6.49-9.6,14.52-16.11,16.06
			c0,0.19,0,0.38,0,0.57c3.25,0.77,6.9,3.14,9.93,6.16c3.03,3.02,5.41,6.65,6.18,9.9c0.19,0,0.38,0,0.58,0
			c1.54-6.49,9.6-14.52,16.11-16.06c0-0.19,0-0.38,0-0.57C401.37,119.82,397.73,117.45,394.7,114.43z"/>
		<linearGradient id="SVGID_3_" gradientUnits="userSpaceOnUse" x1="250.6129" y1="208.0248" x2="121.7455" y2="79.1573">
			<stop  offset="0" style="stop-color:#00325F"/>
			<stop  offset="1" style="stop-color:#8099AF"/>
		</linearGradient>
		<path class="st6" d="M319.81,60.68c-25.25-25.17-58.59-37.48-91.75-36.94c-31.77,0.52-63.38,12.83-87.56,36.94l-93.44,93.17
			l-8.42,58.75l10.03-10c4.63-4.62,6.97-13.81,7.01-23.05c0-0.19,0-0.38,0-0.57c-0.05-9.24-2.38-18.43-7.01-23.05
			c4.63,4.62,13.85,6.95,23.12,6.99c0.19,0,0.38,0,0.58,0c9.27-0.05,18.49-2.37,23.12-6.99l12.17-12.13l58.1-57.93
			c35.57-35.46,93.23-35.46,128.8,0c14.73,14.68,23.35,33.14,25.88,52.26l29.51-29.42C343.88,91.14,333.84,74.66,319.81,60.68z"/>
		<linearGradient id="SVGID_4_" gradientUnits="userSpaceOnUse" x1="237.9605" y1="220.5902" x2="134.3048" y2="116.9345">
			<stop  offset="0" style="stop-color:#8099AF"/>
			<stop  offset="1" style="stop-color:#00325F"/>
		</linearGradient>
		<path class="st7" d="M320.44,138.11c-2.53-19.11-11.15-37.57-25.88-52.26c-35.57-35.46-93.23-35.46-128.8,0l-70.27,70.06
			c-4.63,4.62-6.97,13.81-7.01,23.05c0,0.19,0,0.38,0,0.57c0.05,9.24,2.38,18.43,7.01,23.05c-4.63-4.62-13.85-6.95-23.12-6.99
			c-0.19,0-0.38,0-0.58,0c-9.27,0.05-18.49,2.37-23.12,6.99l-10.03,10l58.93-8.39l93.44-93.17c21.58-21.52,56.71-21.52,78.29,0
			s21.58,56.54,0,78.06L320.44,138.11z"/>
		<path class="st5" d="M78.55,172.81c-3.03-3.02-5.41-6.65-6.18-9.9c-0.19,0-0.38,0-0.58,0c-1.54,6.49-9.6,14.53-16.11,16.06
			c0,0.19,0,0.38,0,0.57c3.25,0.77,6.9,3.14,9.93,6.16c3.03,3.02,5.41,6.65,6.18,9.9c0.19,0,0.38,0,0.58,0
			c1.54-6.49,9.6-14.52,16.11-16.06c0-0.19,0-0.38,0-0.57C85.22,178.2,81.58,175.83,78.55,172.81z"/>
	</g>
	<g>
		<g>
			<path class="st2" d="M1034.22,41.81c-13.52,0-27.53,8-34.91,18.24V41.81h-29.1v127.06h29.1V127.6c0-33.93,9.14-56.78,34.91-56.78
				V41.81z"/>
			<path class="st2" d="M783.2,139.85c-0.28-0.34-0.71-1.08-0.71-2.52v-0.1V89.61v-6.03c0-22.22-17.45-40.41-39.4-41.78h-37.56
				v29.02l37.56,0.14c5.87,1.22,10.3,6.41,10.3,12.62l-0.55,1.59h-28.89c-13.83,0-28.75,12.05-28.75,31.53v20.63
				c0,19.48,14.92,31.53,28.75,31.53h29.8c4.83,0,9.78-1.5,14.2-4.25c4.42,2.75,9.37,4.25,14.2,4.25h11.56v-29.02H783.2z
				 M753.39,137.24v0.1c0,1.43-0.42,2.18-0.71,2.52h-27.68c-0.28-0.34-0.71-1.08-0.71-2.52v-20.63c0-1.43,0.42-2.18,0.71-2.52h28.38
				V137.24z"/>
			<path class="st2" d="M931.81,23.78h-29.1v18.03h-13.71v29.02h13.71v66.51c0,19.48,14.92,31.53,28.75,31.53h24.98v-29.02h-23.92
				c-0.28-0.34-0.71-1.08-0.71-2.52V70.82h24.63V41.81h-24.63V23.78z"/>
			<path class="st2" d="M847.13,85.17l-15.54,0.14c-4.01,0-7.27-3.25-7.27-7.25c0-4,3.26-7.25,7.27-7.25h43.63V41.81h-43.63
				c-20.06,0-36.37,16.26-36.37,36.26s16.31,36.26,36.37,36.26l15.54,0c5.87,1.22,10.3,6.41,10.3,12.62c0,7.11-5.8,12.9-12.93,12.9
				h-37.02v29.02h37.02c23.18,0,42.04-18.81,42.04-41.92C886.53,104.72,869.08,86.54,847.13,85.17z"/>
			<polygon class="st2" points="693.1,41.81 657.37,41.81 639.07,73.96 620.76,41.81 585.03,41.81 621.2,105.34 585.03,168.87 
				620.76,168.87 639.07,136.71 657.37,168.87 693.1,168.87 656.93,105.34 			"/>
			<polygon class="st2" points="572.39,52.8 572.39,23.78 477.35,23.78 477.35,168.87 572.39,168.87 572.39,139.85 511.4,139.85 
				511.4,110.83 563.09,110.83 563.09,81.81 511.4,81.81 511.4,52.8 			"/>
			<path class="st2" d="M1099.64,41.81c-35.19,0-63.72,28.44-63.72,63.53c0,35.09,28.53,63.53,63.72,63.53s63.72-28.44,63.72-63.53
				C1163.36,70.25,1134.83,41.81,1099.64,41.81z M1117.69,113.56l11.15,34.22l-29.2-21.15l-29.2,21.15l11.15-34.22l-29.2-21.15
				h36.09l11.15-34.22l11.15,34.22h36.09L1117.69,113.56z"/>
		</g>
		<g>
			<path class="st2" d="M477.35,201.46h18.87v82.87h-18.87V201.46z"/>
			<path class="st2" d="M559.09,217.97h-18.98v66.36h-18.87v-66.36h-18.76v-16.51h56.61V217.97z"/>
			<path class="st2" d="M651.6,284.33h-19.51l-4.83-19.3h-19.08l-4.5,19.3H584.6l21.87-82.87h23.91L651.6,284.33z M625.02,250.78
				l-3.65-16.62c-1.07-4.93-2.47-12.33-3.54-17.37h-0.21c-1.07,5.04-2.47,12.65-3.43,17.37l-3.75,16.62H625.02z"/>
			<path class="st2" d="M709.66,264.93c0,7.4,0.32,14.04,0.54,19.4H693.9l-0.86-7.5h-0.32c-2.57,3.86-8.04,8.68-16.83,8.68
				c-12.22,0-19.08-8.26-19.08-25.62v-35.92h18.87v33.23c0,8.15,2.25,12.87,7.5,12.87c3.86,0,7.61-3,7.61-9.11v-36.99h18.87V264.93z
				"/>
			<path class="st2" d="M723.6,212.93l18.65-5.25v16.3h12.54v13.61h-12.54v22.73c0,7.08,2.25,9.65,6.75,9.65
				c2.14,0,3.32-0.11,4.93-0.54l0.11,14.58c-2.36,0.75-6.54,1.39-11.58,1.39c-18.55,0-18.87-15.87-18.87-22.73v-25.09h-7.4v-13.61
				h7.4V212.93z"/>
			<path class="st2" d="M815.03,253.78c0,23.48-15.12,31.73-28.3,31.73c-16.72,0-28.2-11.58-28.2-30.98
				c0-20.26,12.22-31.73,28.84-31.73C804.63,222.79,815.03,235.66,815.03,253.78z M786.94,236.52c-7.08,0-9.33,9.22-9.33,17.58
				c0,10.08,2.89,17.69,9.33,17.69c6.11,0,9.01-8.04,9.01-17.69C795.94,245.2,793.37,236.52,786.94,236.52z"/>
			<path class="st2" d="M907.85,284.33H889.3v-33.66c0-7.61-1.72-12.54-6.86-12.54c-4.39,0-7.5,3.75-7.5,9.86v36.34h-18.55v-35.17
				c0-5.9-1.5-11.04-6.75-11.04c-2.79,0-7.61,2.25-7.61,9.97v36.24h-18.55v-41.06c0-7.18-0.21-13.61-0.43-19.3h16.08l0.86,7.5h0.32
				c2.79-3.75,8.04-8.68,16.62-8.68c7.4,0,12.76,3.54,15.12,9.22h0.21c2.36-3.43,7.83-9.22,17.15-9.22
				c11.79,0,18.44,8.79,18.44,24.87V284.33z"/>
			<path class="st2" d="M966.4,270.07c0,5.36,0.21,10.61,0.96,14.26h-16.94l-1.07-5.79h-0.32c-3.64,4.82-9.33,6.97-15.55,6.97
				c-10.93,0-18.12-8.36-18.12-18.55c0-15.97,14.26-22.84,32.05-22.94c0-4.61-2.04-7.93-9.65-7.93c-5.68,0-11.04,1.72-14.9,4.07
				l-3.43-12.22c3.86-2.14,11.69-5.15,22.08-5.15c19.94,0,24.87,12.65,24.87,26.05V270.07z M948.07,255.81
				c-7.83,0-14.47,2.25-14.47,9.22c0,4.93,3,7.08,6.32,7.08c3.86,0,8.15-2.79,8.15-8.47V255.81z"/>
			<path class="st2" d="M979.25,212.93l18.65-5.25v16.3h12.54v13.61h-12.54v22.73c0,7.08,2.25,9.65,6.75,9.65
				c2.14,0,3.32-0.11,4.93-0.54l0.11,14.58c-2.36,0.75-6.54,1.39-11.58,1.39c-18.55,0-18.87-15.87-18.87-22.73v-25.09h-7.4v-13.61
				h7.4V212.93z"/>
			<path class="st2" d="M1027.93,217.22c-5.68,0-9.65-4.07-9.65-9.54c0-5.68,4.07-9.65,9.65-9.65c5.68,0,9.65,3.97,9.65,9.65
				C1037.58,213.36,1033.39,217.22,1027.93,217.22z M1037.36,284.33h-18.87v-60.36h18.87V284.33z"/>
			<path class="st2" d="M1101.74,253.78c0,23.48-15.12,31.73-28.3,31.73c-16.72,0-28.2-11.58-28.2-30.98
				c0-20.26,12.22-31.73,28.84-31.73C1091.34,222.79,1101.74,235.66,1101.74,253.78z M1073.65,236.52c-7.08,0-9.33,9.22-9.33,17.58
				c0,10.08,2.89,17.69,9.33,17.69c6.11,0,9.01-8.04,9.01-17.69C1082.65,245.2,1080.08,236.52,1073.65,236.52z"/>
			<path class="st2" d="M1163.36,284.33h-18.87v-35.06c0-6.33-1.93-10.94-7.29-10.94c-3.97,0-8.15,2.89-8.15,10.61v35.38h-18.87
				v-41.06c0-7.18-0.21-13.61-0.43-19.3h16.19l0.96,7.61h0.32c2.68-4.07,8.36-8.79,16.72-8.79c12.65,0,19.4,9.11,19.4,24.77V284.33z
				"/>
		</g>
	</g>
</g>
</svg>
