<?xml version="1.0" standalone="no"?>
<!DOCTYPE svg PUBLIC "-//W3C//DTD SVG 1.1//EN" "http://www.w3.org/Graphics/SVG/1.1/DTD/svg11.dtd" >
<svg xmlns="http://www.w3.org/2000/svg">
<metadata>
<json>
<![CDATA[
{
	"fontFamily": "exastro-ui-icons",
	"license": "Licensed under the Apache License, Version 2.0 (the \"License\");   you may not use this file except in compliance with the License.   You may obtain a copy of the License at",
	"licenseURL": "http://www.apache.org/licenses/LICENSE-2.0",
	"description": "Unless required by applicable law or agreed to in writing, software   distributed under the License is distributed on an \"AS IS\" BASIS,   WITHOUT WARRANTIES OR CONDITIONS OF ANY KIND, either express or implied.   See the License for the specific language governing permissions and   limitations under the License.\nFont generated by IcoMoon.",
	"copyright": "Copyright 2022 NEC Corporation",
	"majorVersion": 1,
	"minorVersion": 0,
	"version": "Version 1.0",
	"fontId": "exastro-ui-icons",
	"psName": "exastro-ui-icons",
	"subFamily": "Regular",
	"fullName": "exastro-ui-icons"
}
]]>
</json>
</metadata>
<defs>
<font id="exastro-ui-icons" horiz-adv-x="1024">
<font-face units-per-em="1024" ascent="960" descent="-64" />
<missing-glyph horiz-adv-x="1024" />
<glyph unicode="&#x20;" horiz-adv-x="512" d="" />
<glyph unicode="&#xe900;" glyph-name="heartBreak" data-tags="Degraded" d="M757.76 923.36c-0.161 0-0.351 0.001-0.542 0.001-56.591 0-108.982-17.98-151.773-48.54l0.795 0.539 113.76-231.52-260.32-205.44 121.92-272-323.040 308.48 278.4 205.6-141.28 208c-37.183 21.435-81.775 34.080-129.32 34.080-0.042 0-0.084 0-0.126 0h0.006c-147.254-0.997-266.242-120.6-266.242-267.994 0-0.34 0.001-0.679 0.002-1.018v0.053c0-321.44 481.12-672 481.12-672 8.818-5.358 19.479-8.53 30.88-8.53s22.062 3.172 31.148 8.681l-0.268-0.151s481.12 350.56 481.12 672c0.004 0.525 0.006 1.145 0.006 1.766 0 147.396-118.99 267-266.151 267.994l-0.095 0.001z" />
<glyph unicode="&#xe901;" glyph-name="heart" data-tags="Healthy" d="M757.76 923.36c-110.653-0.405-205.35-68.292-245.114-164.632l-0.646-1.768c-40.41 98.108-135.107 165.995-245.709 166.4h-0.051c-147.256-0.995-266.246-120.599-266.246-267.994 0-0.621 0.002-1.241 0.006-1.861l-0.001 0.095c0-321.44 481.12-672 481.12-672 8.818-5.358 19.479-8.53 30.88-8.53s22.062 3.172 31.148 8.681l-0.268-0.151s481.12 350.56 481.12 672c0.004 0.525 0.006 1.145 0.006 1.766 0 147.396-118.99 267-266.151 267.994l-0.095 0.001z" />
<glyph unicode="&#xe902;" glyph-name="missing" data-tags="Missing" d="M874.24 67.84h-57.12c-16 0-24.96 25.6-25.44 76.32 1.28 1.6 3.2 3.68 5.28 5.92 65.199 8.47 115.040 63.656 115.040 130.483 0 0.083 0 0.166 0 0.249v-0.013 279.2c0 220.914-179.086 400-400 400s-400-179.086-400-400v0-279.2c0-0.047 0-0.102 0-0.157 0-67.054 50.18-122.387 115.036-130.497l0.644-0.066c2.080-2.24 4-4.32 5.28-5.92 0-50.72-9.12-76.32-25.44-76.32h-57.76c-27.305 0-49.44-22.135-49.44-49.44s22.135-49.44 49.44-49.44v0h57.12c56.8 0 124.32 31.2 124.32 180h48v-163.52c0-27.305 22.135-49.44 49.44-49.44s49.44 22.135 49.44 49.44v0 163.52h66.88v-163.52c0-27.305 22.135-49.44 49.44-49.44s49.44 22.135 49.44 49.44v0 163.52h48c0-148.8 67.52-180 124.32-180h57.12c27.305 0 49.44 22.135 49.44 49.44s-22.135 49.44-49.44 49.44v0zM432.8 507.84c0 0 0 0 0 0 0-18.147-14.666-32.869-32.791-32.96h-55.849c-18.203 0-32.96 14.757-32.96 32.96v0 190.080c0.090 18.167 14.793 32.87 32.951 32.96h55.849c18.167-0.090 32.87-14.793 32.96-32.951v-0.009zM703.68 507.84c0-18.203-14.757-32.96-32.96-32.96v0h-55.68c-18.203 0-32.96 14.757-32.96 32.96v0 190.080c0.090 18.167 14.793 32.87 32.951 32.96h55.689c0.048 0 0.104 0 0.16 0 18.236 0 33.029-14.737 33.12-32.952v-0.009z" />
<glyph unicode="&#xe903;" glyph-name="circle_top" data-tags="OutOfSync" d="M512 960c-282.77 0-512-229.23-512-512s229.23-512 512-512c282.77 0 512 229.23 512 512v0c0 282.77-229.23 512-512 512v0zM608 448v-320h-192v320h-224l320 352 320-352z" />
<glyph unicode="&#xe904;" glyph-name="progressing" data-tags="Progressing" d="M512-64c-282.77 0-512 229.23-512 512s229.23 512 512 512c282.77 0 512-229.23 512-512v0c0-282.77-229.23-512-512-512v0zM512 768c-176.731 0-320-143.269-320-320s143.269-320 320-320c176.731 0 320 143.269 320 320v0c0 176.731-143.269 320-320 320v0zM512 912v-96c203.241 0 368-164.759 368-368v0h96c0 256.26-207.74 464-464 464v0z" />
<glyph unicode="&#xe905;" glyph-name="circle_pause" data-tags="Suspended" d="M1024 448c0-282.77-229.23-512-512-512s-512 229.23-512 512c0 282.77 229.23 512 512 512v0c282.77 0 512-229.23 512-512v0zM448 688h-160v-480h160zM736 688h-160v-480h160z" />
<glyph unicode="&#xe906;" glyph-name="circle_check" data-tags="Synced" d="M512 960c-282.77 0-512-229.23-512-512s229.23-512 512-512c282.77 0 512 229.23 512 512v0c0 282.77-229.23 512-512 512v0zM552.96 277.76l-108.8-123.2-286.24 252.64 108.8 123.2 162.88-144 313.28 355.040 123.2-108.8z" />
<glyph unicode="&#xe907;" glyph-name="circle_question" data-tags="Unknown" d="M1024 448c0-282.77-229.23-512-512-512s-512 229.23-512 512c0 282.77 229.23 512 512 512v0c282.77 0 512-229.23 512-512v0zM275.84 585.6h102.24c0.059-0.002 0.128-0.003 0.197-0.003 3.056 0 5.624 2.089 6.353 4.917l0.010 0.046q18.24 91.84 106.88 109.6 84.32 15.040 128-45.12c8.56-12.196 13.679-27.35 13.679-43.699 0-8.103-1.258-15.912-3.588-23.244l0.149 0.543c-5.723-21.762-19.28-39.695-37.401-50.991l-0.359-0.209-84.32-54.4c-36.199-22.012-60.009-61.241-60.009-106.032 0-3.17 0.119-6.312 0.354-9.423l-0.025 0.414v-42.4c0.252-3.238 2.942-5.769 6.222-5.769 0.119 0 0.237 0.003 0.354 0.010l-0.016-0.001h112c0.101-0.006 0.219-0.009 0.338-0.009 3.281 0 5.97 2.532 6.221 5.748l0.001 0.022v55.040c0 18.080 11.2 34.080 33.6 48l47.2 30.24q80.96 51.040 94.4 108.48 23.52 72.48-30.4 144t-169.12 85.28c-11.269 1.617-24.283 2.54-37.513 2.54-56.172 0-108.456-16.645-152.189-45.272l1.062 0.652q-88.16-64.64-90.88-162.56c-0.001-0.050-0.002-0.109-0.002-0.168 0-3.446 2.794-6.24 6.24-6.24 0.113 0 0.226 0.003 0.338 0.009l-0.016-0.001zM512 263.36c-0.047 0-0.104 0-0.16 0-45.95 0-83.2-37.25-83.2-83.2s37.25-83.2 83.2-83.2c45.95 0 83.2 37.25 83.2 83.2v0c0 0.047 0 0.104 0 0.16 0 45.862-37.178 83.040-83.040 83.040 0 0 0 0 0 0v0z" />
<glyph unicode="&#xe908;" glyph-name="detail" data-tags="Detail" d="M640 128c0-17.673-14.327-32-32-32v0h-512c-17.673 0-32 14.327-32 32v0 736c0 17.673 14.327 32 32 32v0h490.4c10.4 0 20.8 0 31.040-1.6 31.886-2.946 61.253-9.801 88.924-20.134l-2.364 0.774c-5.723 48.056-46.233 84.962-95.363 84.962-0.224 0-0.448-0.001-0.671-0.002h-511.966c-53.019 0-96-42.981-96-96v0-736c0-53.019 42.981-96 96-96v0h512c53.019 0 96 42.981 96 96v0 103.040c-18.257-6.752-39.82-12.33-62.091-15.758l-1.909-0.242zM176 464h80c-5.272 18.62-9.135 40.442-10.812 62.873l-0.068 1.127h-69.12c-17.673 0-32-14.327-32-32s14.327-32 32-32v0zM176 384c-17.673 0-32-14.327-32-32s14.327-32 32-32v0h160c-17.951 18.755-33.839 39.737-47.142 62.418l-0.858 1.582zM144 208c0-17.673 14.327-32 32-32v0h352c17.673 0 32 14.327 32 32v0c0.038 0.479 0.059 1.037 0.059 1.6s-0.021 1.121-0.063 1.673l0.004-0.073c-41.816 3.149-80.484 13.439-115.863 29.664l2.103-0.864h-270.24c-17.673 0-32-14.327-32-32v0zM144 640c0-17.673 14.327-32 32-32v0h72.16c3.672 24.181 9.249 45.743 16.756 66.379l-0.756-2.379h-88.16c-17.673 0-32-14.327-32-32v0zM366.56 816h-190.56c-17.673 0-32-14.327-32-32s14.327-32 32-32v0h131.52c17.342 24.193 36.782 45.208 58.529 63.579l0.511 0.421zM1020.48 32l-155.2 236.48c-3.816 5.874-10.345 9.705-17.769 9.705-4.415 0-8.514-1.355-11.903-3.672l0.073 0.047-13.92-9.44-36.16 54.88c64.651 57.322 105.193 140.589 105.193 233.324 0 63.31-18.896 122.208-51.355 171.359l0.722-1.164c-54.869 83.326-147.994 137.566-253.787 137.566-62.806 0-121.146-19.116-169.521-51.848l1.068 0.681c-82.585-56.69-136.054-150.591-136.054-256.98 0-63.338 18.951-122.249 51.492-171.373l-0.718 1.153c54.895-83.384 148.077-137.664 253.937-137.664 49.078 0 95.431 11.667 136.437 32.378l-1.734-0.794 36-54.88-14.080-9.44c-5.795-4.003-9.545-10.61-9.545-18.093 0-4.392 1.292-8.483 3.517-11.913l-0.052 0.085 155.2-236.64c3.826-5.811 10.32-9.594 17.697-9.594 4.446 0 8.571 1.374 11.974 3.72l-0.071-0.046 92.48 62.080c5.869 3.959 9.677 10.583 9.677 18.097 0 4.462-1.343 8.61-3.647 12.063l0.050-0.079zM720 350.080c-37.368-25.357-83.467-40.483-133.098-40.483-83.525 0-157.044 42.839-199.785 107.743l-0.556 0.9c-25.107 37.908-40.056 84.446-40.056 134.477 0 84.065 42.208 158.271 106.587 202.584l0.829 0.539c37.305 25.051 83.227 39.982 132.638 39.982 83.332 0 156.744-42.47 199.773-106.947l0.55-0.875c25.324-38.009 40.41-84.727 40.41-134.968 0-83.986-42.156-158.125-106.462-202.413l-0.828-0.539zM586.88 750.72c-11.311 0-20.48-9.169-20.48-20.48s9.169-20.48 20.48-20.48v0c0.432 0.004 0.941 0.007 1.452 0.007 84.158 0 152.508-67.683 153.587-151.585l0.001-0.102c-0.051-0.54-0.080-1.167-0.080-1.801 0-11.222 9.098-20.32 20.32-20.32s20.32 9.098 20.32 20.32c0 0.634-0.029 1.262-0.086 1.881l0.006-0.080c-0.904 106.587-87.519 192.644-194.233 192.644-0.452 0-0.904-0.002-1.356-0.005h0.069z" />
<glyph unicode="&#xe909;" glyph-name="cal" data-tags="Cal" d="M160 192h128v-128h-128v128zM352 192h128v-128h-128v128zM544 192h128v-128h-128v128zM160 384h128v-128h-128v128zM352 384h128v-128h-128v128zM544 384h128v-128h-128v128zM736 384h128v-128h-128v128zM352 576h128v-128h-128v128zM544 576h128v-128h-128v128zM736 576h128v-128h-128v128zM896 896h-32v-128c0-35.346-28.654-64-64-64s-64 28.654-64 64v0 128h-64v-128c0-35.346-28.654-64-64-64s-64 28.654-64 64v0 128h-64v-128c0-35.346-28.654-64-64-64s-64 28.654-64 64v0 128h-64v-128c0-35.346-28.654-64-64-64s-64 28.654-64 64v0 128h-32c-70.692 0-128-57.308-128-128v0-704c0-70.692 57.308-128 128-128v0h768c70.692 0 128 57.308 128 128v0 704c0 70.692-57.308 128-128 128v0zM960 64c0-35.346-28.654-64-64-64v0h-768c-35.346 0-64 28.654-64 64v0 576h896zM800 736c17.673 0 32 14.327 32 32v0 160c0 17.673-14.327 32-32 32s-32-14.327-32-32v0-160c0-17.673 14.327-32 32-32v0zM608 736c17.673 0 32 14.327 32 32v0 160c0 17.673-14.327 32-32 32s-32-14.327-32-32v0-160c0-17.673 14.327-32 32-32v0zM416 736c17.673 0 32 14.327 32 32v0 160c0 17.673-14.327 32-32 32s-32-14.327-32-32v0-160c0-17.673 14.327-32 32-32v0zM224 736c17.673 0 32 14.327 32 32v0 160c0 17.673-14.327 32-32 32s-32-14.327-32-32v0-160c0-17.673 14.327-32 32-32v0z" />
<glyph unicode="&#xe90a;" glyph-name="cal_off" data-tags="Cal_off" d="M896 896h-32v-128c0-35.346-28.654-64-64-64s-64 28.654-64 64v0 128h-64v-128c0-35.346-28.654-64-64-64s-64 28.654-64 64v0 128h-64v-128c0-35.346-28.654-64-64-64s-64 28.654-64 64v0 128h-64v-128c0-35.346-28.654-64-64-64s-64 28.654-64 64v0 128h-32c-70.692 0-128-57.308-128-128v0-704c0-70.692 57.308-128 128-128v0h768c70.692 0 128 57.308 128 128v0 704c0 70.692-57.308 128-128 128v0zM960 64c0-35.346-28.654-64-64-64v0h-768c-35.346 0-64 28.654-64 64v0 576h896zM800 736c17.673 0 32 14.327 32 32v0 160c0 17.673-14.327 32-32 32s-32-14.327-32-32v0-160c0-17.673 14.327-32 32-32v0zM608 736c17.673 0 32 14.327 32 32v0 160c0 17.673-14.327 32-32 32s-32-14.327-32-32v0-160c0-17.673 14.327-32 32-32v0zM416 736c17.673 0 32 14.327 32 32v0 160c0 17.673-14.327 32-32 32s-32-14.327-32-32v0-160c0-17.673 14.327-32 32-32v0zM224 736c17.673 0 32 14.327 32 32v0 160c0 17.673-14.327 32-32 32s-32-14.327-32-32v0-160c0-17.673 14.327-32 32-32v0zM295.68 144l40.32-40.32c4.817-4.732 11.428-7.654 18.72-7.654s13.903 2.921 18.724 7.658l-0.004-0.004 138.56 138.080 137.92-138.080c4.817-4.732 11.428-7.654 18.72-7.654s13.903 2.921 18.724 7.658l-0.004-0.004 40.96 40.32c4.732 4.817 7.654 11.428 7.654 18.72s-2.921 13.903-7.658 18.724l0.004-0.004-138.080 138.56 138.080 137.92c4.732 4.817 7.654 11.428 7.654 18.72s-2.921 13.903-7.658 18.724l0.004-0.004-40.32 40.96c-4.817 4.732-11.428 7.654-18.72 7.654s-13.903-2.921-18.724-7.658l0.004 0.004-138.56-138.080-137.92 138.080c-4.817 4.732-11.428 7.654-18.72 7.654s-13.903-2.921-18.724-7.658l0.004 0.004-40.96-40.32c-4.732-4.817-7.654-11.428-7.654-18.72s2.921-13.903 7.658-18.724l-0.004 0.004 138.080-138.56-138.080-137.92c-4.923-4.849-7.973-11.589-7.973-19.040s3.050-14.191 7.97-19.037l0.003-0.003z" />
<glyph unicode="&#xe90b;" glyph-name="edit" data-tags="Edit" d="M832.32 47.68h-720.64v720.64h446.88v111.84h-558.56v-944.16h944.16v530.72h-111.84v-419.040zM226.56 340.16l-40.48-218.080 218.080 40.48 619.84 619.68-177.76 177.76-615.2-615.2zM376 199.84l-90.56-16-38.4 37.44 16 91.36zM500 204.16h251.36v-72.64h-251.36v72.64z" />
<glyph unicode="&#xe90c;" glyph-name="filter" data-tags="Filter" d="M1021.446 960h-1021.446v-167.102l432.838-391.82v-462.524l155.771 111.401v351.122l432.838 391.82v167.102z" />
<glyph unicode="&#xe90d;" glyph-name="filter_off" data-tags="Filter_off" d="M786.72 959.36h-786.72v-167.36l324.96-294.24 461.76 461.6zM433.6-64l156.16 111.52v241.6l-156.16-156.16v-196.96zM1004.32 940.32c-12.066 12.174-28.793 19.711-47.28 19.711s-35.214-7.537-47.275-19.706l-877.765-877.445c-12.141-12.141-19.65-28.914-19.65-47.44 0-37.053 30.037-67.090 67.090-67.090 18.526 0 35.299 7.509 47.44 19.65l877.44 877.76c12.174 12.066 19.711 28.793 19.711 47.28s-7.537 35.214-19.706 47.275l-0.005 0.005z" />
<glyph unicode="&#xe90e;" glyph-name="exastro" data-tags="exastro" d="M535.84 478.72l-24 73.76-23.84-73.76h-77.6l62.72-45.44-24-73.76 62.72 45.6 62.72-45.6-24 73.76 62.72 45.44h-77.44zM984.48 558.24c-2.24-9.6-3.52-20.16-3.52-30.72-8.8 2.080-18.56 8.48-26.72 16.64s-14.56 17.92-16.64 26.72c10.56 0 21.12 1.28 30.72 3.52l39.52 39.52-139.52-20-251.2-251.2c-5.44-5.44-11.36-10.24-17.44-14.72-58.24-42.56-140.48-37.76-192.96 14.72-37.6 37.6-50.72 90.4-39.52 138.72l-83.2-83.2c9.44-43.68 31.040-83.2 63.040-115.2 44.16-44.16 102.72-68.32 164.96-68.32s120.96 24.32 164.96 68.32l212.16 212.16c2.24 9.6 3.52 20.16 3.52 30.72 8.8-2.080 18.56-8.48 26.72-16.64s14.56-17.92 16.64-26.72c-10.56 0-21.12-1.28-30.72-3.52l-212.16-212.16c-48.32-48.32-112.64-75.040-181.12-75.040s-132.8 26.72-181.12 75.040c-31.68 31.68-53.76 70.24-65.44 112.8l-66.4-66.4c16.48-38.56 40.48-74.88 72-106.24 67.84-67.84 157.44-101.12 246.56-99.52 85.44 1.44 170.24 34.56 235.36 99.52l251.2 251.2 20 139.68-39.52-39.52zM892.8 527.52c0 16.48-2.88 32.96-8.48 45.76-2.72 6.56-6.24 12.16-10.4 16.32 6.24-6.24 15.68-10.88 26.56-14.080 10.88-3.040 23.2-4.64 35.68-4.8-4.16-17.44-25.76-39.2-43.36-43.36zM937.6 482.72c4.16 17.44 25.76 39.2 43.36 43.36 0-24.96 6.4-49.76 18.88-62.080-12.48 12.48-37.28 18.72-62.080 18.88zM406.72 553.28s11.36 10.24 17.44 14.72c58.24 42.56 140.48 37.76 192.96-14.72 37.6-37.6 50.56-90.4 39.52-138.72l83.2 83.2c-9.44 43.68-31.040 83.2-63.040 115.2-44.16 44.16-102.72 68.32-164.96 68.32s-120.96-24.32-164.96-68.32l-212.16-212.16c-2.24-9.6-3.52-20.16-3.52-30.72-8.8 2.080-18.56 8.48-26.72 16.64s-14.56 17.92-16.64 26.72c10.56 0 21.12 1.28 30.72 3.52l212.16 212.16c48.32 48.32 112.64 75.040 181.12 75.040s132.8-26.72 181.12-75.040c31.68-31.68 53.76-70.24 65.44-112.8l66.4 66.4c-16.48 38.56-40.48 74.88-72 106.24-67.84 67.84-157.44 101.12-246.56 99.52-85.44-1.44-170.24-34.56-235.36-99.52l-250.88-251.2-20-139.68 39.52 39.52c2.24 9.6 3.52 20.16 3.52 30.72 8.8-2.080 18.56-8.48 26.72-16.64s14.56-17.92 16.64-26.72c-10.56 0-21.12-1.28-30.72-3.52l-39.52-39.52 139.52 20s251.040 251.2 251.040 251.2zM43.2 370.080c0 24.96-6.4 49.76-18.88 62.080 12.48-12.48 37.28-18.72 62.080-18.88-4.16-17.44-25.76-39.2-43.36-43.36zM123.68 320.48c-10.88 3.040-23.2 4.64-35.68 4.8 4.16 17.44 25.76 39.2 43.36 43.36 0-16.48 2.88-32.96 8.48-45.76 2.72-6.56 6.24-12.16 10.4-16.32-6.24 6.24-15.68 10.88-26.56 14.080z" />
<glyph unicode="&#xe90f;" glyph-name="ita" data-tags="ita" d="M832 381.44v230.72c55.2 14.24 96 64.16 96 123.84 0 70.72-57.28 128-128 128s-128-57.28-128-128c0-23.68 6.56-45.92 17.76-64.96l-400.96-400.96c-10.24 6.080-21.28 10.56-32.96 13.6v230.72c108.48 15.52 192 108.64 192 221.44 0.16 123.84-100.16 224.16-223.84 224.16s-224-100.32-224-224c0-112.8 83.52-205.92 192-221.44v-230.72c-55.2-14.24-96-64.16-96-123.84 0-70.72 57.28-128 128-128s128 57.28 128 128c0 23.68-6.56 45.92-17.76 64.96l400.96 400.96c10.24-6.080 21.28-10.56 32.96-13.6v-230.72c-108.48-15.52-192-108.64-192-221.44 0-123.68 100.32-224 224-224s224 100.32 224 224c0 112.8-83.52 205.92-192 221.44zM64 736c0 88.16 71.84 160 160 160s160-71.84 160-160-71.84-160-160-160-160 71.84-160 160zM800 0c-88.16 0-160 71.84-160 160s71.84 160 160 160 160-71.84 160-160-71.84-160-160-160z" />
<glyph unicode="&#xe910;" glyph-name="download" data-tags="Download" d="M511.76 192.36l383.82 383.82h-251.562v383.82h-255.88v-383.82h-260.198l383.82-383.82zM895.58 191.88v-127.46h-767.64v127.46h-127.94v-255.88l1023.52 0.48v255.4h-127.94z" />
<glyph unicode="&#xe911;" glyph-name="eye_close" data-tags="Eye_close" d="M914.88 448c-29.504-44.24-62.089-82.721-98.555-117.136l-0.325-0.304c-23.554-22.28-49.326-42.766-76.77-60.928l-2.11-1.312h-0.8l-3.84-2.56c-62.053-41.314-138.313-65.924-220.32-65.924s-158.267 24.61-221.796 66.847l1.476-0.923c-1.042 0.492-2.316 0.982-3.627 1.384l-0.213 0.056h-0.96c-30.001 19.587-56.146 40.291-80.257 63.121l0.257-0.241c-36.418 34.839-68.7 73.475-96.371 115.421l-1.549 2.499h-88.96l10.24-18.56c35.046-58.41 75.757-108.693 122.511-152.617l0.369-0.343c19.738-18.9 40.98-36.69 63.358-53.015l1.762-1.225-49.44-86.56c-3.206-5.475-5.099-12.055-5.099-19.078 0-14.168 7.705-26.537 19.154-33.144l0.185-0.098c5.37-3.218 11.848-5.121 18.77-5.121 0.095 0 0.19 0 0.284 0.001h-0.015c14.177 0.026 26.549 7.73 33.181 19.176l0.099 0.184 48 83.68c54.95-30.521 119.506-51.039 188.182-57.3l1.898-0.14v-100.8c0-21.208 17.192-38.4 38.4-38.4s38.4 17.192 38.4 38.4v0 100.8c71.29 6.27 136.531 27.041 194.465 59.342l-2.465-1.262 46.88-81.76c6.412-11.727 18.466-19.662 32.413-20.158l0.067-0.002c0.080-0.001 0.175-0.001 0.27-0.001 6.922 0 13.4 1.903 18.939 5.214l-0.169-0.093c11.634 6.705 19.339 19.074 19.339 33.242 0 7.023-1.893 13.603-5.197 19.259l0.098-0.181-48 84.64c23.698 17.376 44.573 34.952 64.213 53.803l-0.213-0.203c47.123 44.267 87.834 94.55 121.121 149.811l1.759 3.149 9.92 19.36zM55.36 482.080c2.513-1.292 5.483-2.049 8.63-2.049 7.441 0 13.893 4.232 17.080 10.421l0.050 0.108 9.44 18.56c30.802 56.61 66.848 105.357 108.649 148.495l-0.169-0.175c93.28 97.12 200.96 148.32 312.96 148.32s219.68-51.2 312.96-148.32c41.632-42.963 77.678-91.71 106.731-144.828l1.749-3.492 9.44-18.56c3.189-6.309 9.622-10.56 17.047-10.56 0.026 0 0.051 0 0.077 0h-0.004c0.030 0 0.066 0 0.102 0 3.119 0 6.059 0.769 8.639 2.129l-0.101-0.049c6.296 3.238 10.529 9.69 10.529 17.13 0 3.147-0.757 6.117-2.099 8.738l0.050-0.108-9.28 18.56c-32.905 60.15-71.166 111.979-115.426 157.996l0.226-0.236c-100.64 104.64-218.56 160-340.64 160s-240-55.36-340.64-160c-44.034-45.781-82.295-97.61-113.301-153.992l-1.899-3.768-9.28-18.56c-1.292-2.513-2.049-5.483-2.049-8.63 0-7.441 4.232-13.893 10.421-17.080l0.108-0.050z" />
<glyph unicode="&#xe912;" glyph-name="eye_open" data-tags="Eye_open" d="M512 679.040c-127.6 0-231.040-103.44-231.040-231.040s103.44-231.040 231.040-231.040c127.6 0 231.040 103.44 231.040 231.040v0c0 0.048 0 0.104 0 0.16 0 127.512-103.368 230.88-230.88 230.88-0.056 0-0.112 0-0.169 0h0.009zM512 327.040c-66.893 0-121.12 54.227-121.12 121.12s54.227 121.12 121.12 121.12c66.893 0 121.12-54.227 121.12-121.12 0-0.056 0-0.112 0-0.169v0.009c0-66.893-54.227-121.12-121.12-121.12v0zM993.6 466.56c-35.046 58.41-75.757 108.693-122.511 152.617l-0.369 0.343c-19.427 18.648-40.302 36.224-62.277 52.39l-1.723 1.21 48 84.48c3.587 5.732 5.715 12.695 5.715 20.156 0 21.208-17.192 38.4-38.4 38.4-14.587 0-27.275-8.134-33.775-20.113l-0.1-0.202-46.88-81.76c-55.469 31.039-120.71 51.81-190.155 57.948l-1.845 0.132v100.8c0 21.208-17.192 38.4-38.4 38.4s-38.4-17.192-38.4-38.4v0-100.8c-70.574-6.4-135.13-26.919-192.581-58.709l2.501 1.269-48 83.68c-6.6 12.182-19.288 20.316-33.875 20.316-21.208 0-38.4-17.192-38.4-38.4 0-7.461 2.128-14.424 5.809-20.317l-0.094 0.162 49.44-86.4c-24.14-17.55-45.382-35.34-65.345-54.454l0.225 0.214c-46.684-44.281-87.033-94.56-119.991-149.762l-1.769-3.198-10.24-18.56 10.24-18.56c35.046-58.41 75.757-108.693 122.511-152.617l0.369-0.343c106.4-100.48 230.72-154.24 358.72-154.24s252.32 53.76 358.72 154.24c47.123 44.267 87.834 94.55 121.121 149.811l1.759 3.149 10.24 18.56zM816 330.56c-92.96-87.2-195.36-131.52-304-131.52s-211.36 44.32-304 131.52c-36.791 34.719-69.376 73.2-97.357 115.022l-1.523 2.418c29.504 44.24 62.089 82.721 98.555 117.136l0.325 0.304c23.886 22.465 50.022 43.162 77.829 61.533l2.171 1.347h1.12c1.399 0.831 2.601 1.676 3.734 2.603l-0.054-0.043c62.053 41.314 138.313 65.924 220.32 65.924s158.267-24.61 221.796-66.847l-1.476 0.923 3.84-2.56h0.8c29.138-19.612 54.599-40.297 78.069-63.024l-0.149 0.144c36.791-34.719 69.376-73.2 97.357-115.022l1.523-2.418c-29.504-44.24-62.089-82.721-98.555-117.136l-0.325-0.304z" />
<glyph unicode="&#xe913;" glyph-name="gear" data-tags="Gear" d="M1024 375.2v145.6l-130.080 12.48c-10.749 47.089-28.596 88.648-52.607 125.854l0.927-1.534 83.2 100.96-102.88 102.88-100.96-83.36c-35.676 23.035-77.238 40.831-121.703 51.016l-2.617 0.504-12.48 130.4h-145.6l-12.48-130.4c-47.082-10.689-88.644-28.485-125.86-52.448l1.54 0.928-100.96 83.36-102.88-102.88 83.2-100.96c-23.084-35.672-40.931-77.231-51.171-121.696l-0.509-2.624-130.080-12.48v-145.6l129.92-12.48c10.61-47.255 28.416-88.99 52.447-126.339l-0.927 1.539-82.88-100.48 102.88-102.88 100.48 82.88c35.836-23.303 77.631-41.225 122.384-51.35l2.576-0.49 12.32-129.6h145.6l12.32 129.6c47.329 10.615 89.124 28.537 126.459 52.751l-1.499-0.911 100.48-82.88 102.88 102.88-82.88 100.48c23.104 35.81 40.91 77.545 51.025 122.199l0.495 2.601zM512 240.96c-114.168 0-206.72 92.552-206.72 206.72s92.552 206.72 206.72 206.72c114.056 0 206.538-92.369 206.72-206.383v-0.017c0-0.095 0-0.207 0-0.32 0-114.168-92.552-206.72-206.72-206.72 0 0 0 0 0 0v0z" />
<glyph unicode="&#xe914;" glyph-name="link" data-tags="Link" d="M292.64 160c-19.638-10.092-42.849-16.007-67.442-16.007-82.887 0-150.080 67.193-150.080 150.080 0 41.346 16.72 78.788 43.767 105.932l220.796 220.796 44.32 44c24.818 24.79 58.322 40.888 95.553 43.336l0.447 0.024h9.6c0.432 0.004 0.942 0.007 1.453 0.007 27.686 0 53.622-7.489 75.895-20.551l-0.708 0.384c11.441-6.671 21.315-14.304 30.084-23.044l-0.004 0.004c26.981-27.225 43.652-64.705 43.652-106.080s-16.671-78.855-43.663-106.091l-44.469-44.469-90.080-89.92c6.697-26.197 26.923-46.423 52.614-53.010l0.506-0.11 89.92 89.92 44.48 44.8c41.209 40.498 66.746 96.826 66.746 159.12 0 75.533-37.547 142.297-94.994 182.646l-0.712 0.474c-20.591 14.854-44.652 26.499-70.602 33.559l-1.558 0.361c-17.577 4.955-37.762 7.804-58.612 7.804-61.914 0-117.96-25.119-158.505-65.722l-44.483-44.483-220.8-221.12c-40.771-40.72-65.992-97.001-65.992-159.173 0-124.242 100.718-224.96 224.96-224.96 44.932 0 86.788 13.173 121.915 35.868l-0.883-0.535c-8.751 7.046-16.574 14.058-24.015 21.455l0.015-0.015c-10.291 10.509-19.846 21.842-28.523 33.852l-0.597 0.868zM958.4 761.76c-40.825 40.537-97.070 65.59-159.167 65.59-44.826 0-86.603-13.055-121.736-35.571l0.903 0.541c20.32-16.317 37.887-34.849 52.71-55.485l0.57-0.835c19.763 10.261 43.149 16.278 67.941 16.278 82.799 0 149.92-67.121 149.92-149.92 0-41.573-16.922-79.194-44.253-106.351l-0.008-0.008-265.28-264.8c-27.335-26.802-64.816-43.343-106.16-43.343s-78.825 16.542-106.185 43.367l0.025-0.024c-8.622 8.821-16.243 18.682-22.641 29.361l-0.399 0.719c-12.973 21.801-20.641 48.071-20.641 76.131 0 41.389 16.683 78.881 43.691 106.12l-0.010-0.011 44.32 44.32 90.24 90.080c-3.238 13.244-9.602 24.699-18.279 33.962l0.039-0.042c-9.112 9.019-20.587 15.666-33.413 18.931l-0.507 0.109-90.88-90.080-44.32-44.8c-40.55-40.707-65.62-96.859-65.62-158.867 0-20.543 2.752-40.443 7.906-59.352l-0.367 1.578c7.421-27.508 19.066-51.569 34.371-72.818l-0.451 0.658c7.611-10.769 15.546-20.226 24.185-28.986l-0.025 0.026c8.696-8.715 18.16-16.655 28.285-23.714l0.675-0.446c20.6-14.817 44.656-26.457 70.589-33.554l1.571-0.366c17.355-4.805 37.294-7.603 57.875-7.68h0.045c0.431-0.003 0.941-0.005 1.452-0.005 61.934 0 117.997 25.135 158.545 65.761l264.484 265.284c40.547 40.803 65.609 97.035 65.609 159.12s-25.062 118.318-65.62 159.132l0.012-0.012z" />
<glyph unicode="&#xe915;" glyph-name="trash" data-tags="Trash" d="M896 790.56l-263.040 41.44c0.354 3.412 0.557 7.373 0.557 11.381 0 64.418-52.222 116.64-116.64 116.64-55.409 0-101.794-38.636-113.685-90.437l-0.152-0.784-259.040 41.12c-2.405 0.409-5.175 0.643-8 0.643-27.66 0-50.083-22.423-50.083-50.083 0-24.835 18.077-45.448 41.791-49.4l0.292-0.040 752-119.2c2.405-0.41 5.175-0.644 8-0.644 27.616 0 50.004 22.388 50.004 50.004 0 24.792-18.042 45.369-41.712 49.32l-0.292 0.040zM525.6 898.24c26.655-4.387 46.74-27.258 46.74-54.821 0-0.527-0.007-1.052-0.022-1.576l0.002 0.077-108.32 17.28c7.11 23.133 28.288 39.658 53.325 39.658 2.92 0 5.788-0.225 8.587-0.658l-0.312 0.040zM850.72 647.36h-702.56c-18.584-0.080-33.619-15.164-33.619-33.76 0-0.394 0.007-0.786 0.020-1.177l-0.002 0.057 25.28-644.48c0.793-17.838 15.447-32 33.409-32 0.011 0 0.022 0 0.033 0h652.318c0.011 0 0.025 0 0.038 0 17.994 0 32.684 14.145 33.559 31.922l0.003 0.078 25.12 644.16c0.024 0.478 0.038 1.037 0.038 1.6 0 18.557-15.043 33.6-33.6 33.6-0.013 0-0.027 0-0.040 0h0.002zM280 45.76c0-6.186-5.014-11.2-11.2-11.2h-48c-6.116 0.090-11.040 5.070-11.040 11.199 0 0 0 0.001 0 0.001v0 491.84c0 6.097 4.943 11.040 11.040 11.040h48c0.048 0.001 0.104 0.001 0.16 0.001 6.097 0 11.040-4.943 11.040-11.040 0 0 0-0.001 0-0.001v0zM449.44 45.76c0 0 0-0.001 0-0.001 0-6.129-4.924-11.109-11.032-11.199h-48.008c-6.116 0.090-11.040 5.070-11.040 11.199 0 0 0 0.001 0 0.001v0 491.84c0 6.097 4.943 11.040 11.040 11.040v0h48c6.097 0 11.040-4.943 11.040-11.040v0zM618.88 45.76c0 0 0-0.001 0-0.001 0-6.129-4.924-11.109-11.032-11.199h-47.848c-6.186 0-11.2 5.014-11.2 11.2v0 491.84c0 0 0 0.001 0 0.001 0 6.097 4.943 11.040 11.040 11.040 0.056 0 0.112 0 0.168-0.001h47.992c6.097 0 11.040-4.943 11.040-11.040v0zM788.48 45.76c0-6.186-5.014-11.2-11.2-11.2v0h-47.2c-6.116 0.090-11.040 5.070-11.040 11.199 0 0 0 0.001 0 0.001v0 491.84c0 6.097 4.943 11.040 11.040 11.040v0h47.2c0.048 0.001 0.104 0.001 0.16 0.001 6.097 0 11.040-4.943 11.040-11.040 0 0 0-0.001 0-0.001v0z" />
<glyph unicode="&#xe916;" glyph-name="upload" data-tags="Upload" d="M379.502 192.36h255.88v383.82h260.198l-383.82 383.82-383.82-383.82h251.562v-383.82zM895.58 191.88v-127.46h-767.64v127.46h-127.94v-255.88h127.94v0.48h895.58v255.4h-127.94z" />
<glyph unicode="&#xe917;" glyph-name="user" data-tags="User" d="M833.369 618.88c0-188.395-143.989-341.12-321.609-341.12s-321.609 152.725-321.609 341.12c0 188.395 143.989 341.12 321.609 341.12s321.609-152.725 321.609-341.12zM770.679 248.174h-47.978c-60.565-35.103-133.254-55.819-210.781-55.819s-150.216 20.716-212.833 56.913l2.052-1.094h-47.978c-139.065-0.272-251.748-112.842-252.202-251.839v-59.855h1021.601v59.812c-0.453 138.928-112.954 251.429-251.838 251.882h-0.044z" />
<glyph unicode="&#xe918;" glyph-name="branch" data-tags="Branch" d="M960 800c-0.006 88.361-71.638 159.99-160 159.99-88.366 0-160-71.634-160-160 0-71.225 46.539-131.58 110.868-152.315l1.132-0.315v-71.36c0-44.183-35.817-80-80-80v0h-320c-0.019 0-0.042 0-0.064 0-29.174 0-56.69-7.098-80.915-19.662l0.979 0.462v170.56c65.461 21.050 112 81.405 112 152.63 0 88.366-71.634 160-160 160s-160-71.634-160-160c0-71.225 46.539-131.58 110.868-152.315l1.132-0.315v-398.72c-65.461-21.050-112-81.405-112-152.63 0-88.366 71.634-160 160-160s160 71.634 160 160c0 71.225-46.539 131.58-110.868 152.315l-1.132 0.315v74.080c0.803 42.857 35.734 77.291 78.707 77.291 0.455 0 0.908-0.004 1.361-0.012l-0.068 0.001h320c97.202 0 176 78.798 176 176v0 71.36c65.461 21.050 112 81.405 112 152.63 0 0.003 0 0.007 0 0.010v-0.001zM224 864c35.346 0 64-28.654 64-64s-28.654-64-64-64c-35.346 0-64 28.654-64 64v0c0 35.346 28.654 64 64 64v0zM224 32c-35.346 0-64 28.654-64 64s28.654 64 64 64c35.346 0 64-28.654 64-64v0c0-35.346-28.654-64-64-64v0zM800 736c-35.346 0-64 28.654-64 64s28.654 64 64 64c35.346 0 64-28.654 64-64v0c0-35.346-28.654-64-64-64v0z" />
<glyph unicode="&#xe919;" glyph-name="update02" data-tags="update02" d="M864.96 783.040c-83.766 87.964-199.877 144.465-329.183 150.362l-1.057 0.038h-28.48l-22.72-0.8c-195.316-11.542-358.724-136.671-425.907-309.801l-1.133-3.319c-2.023-4.995-3.491-10.792-4.135-16.834l-0.025-0.286c-0.417-3.005-0.655-6.478-0.655-10.006 0-42.415 34.385-76.8 76.8-76.8 32.672 0 60.58 20.402 71.677 49.161l0.178 0.525c48.752 126.681 169.463 214.943 310.79 214.943 8.421 0 16.769-0.313 25.032-0.929l-1.103 0.066c34.192-2.612 65.9-9.96 95.565-21.416l-2.285 0.776c45.052-17.236 83.539-42.405 115.546-74.106l-0.026 0.026-154.88-125.92 394.24-40.64 40.8 393.92zM922.72 375.52c-8.063 3.141-17.398 4.962-27.157 4.962-32.701 0-60.628-20.438-71.705-49.236l-0.178-0.526c-48.752-126.681-169.463-214.943-310.79-214.943-8.421 0-16.769 0.313-25.032 0.929l1.103-0.066c-34.192 2.612-65.9 9.96-95.565 21.416l2.285-0.776c-45.052 17.236-83.539 42.405-115.546 74.106l0.026-0.026 154.88 125.92-394.24 40.64-40.8-393.92 159.040 129.12c83.766-87.964 199.877-144.465 329.183-150.362l1.057-0.038h51.2c195.45 11.534 358.957 136.813 426.068 310.118l1.132 3.322c2.023 4.995 3.491 10.792 4.135 16.834l0.025 0.286c0.455 3.137 0.714 6.758 0.714 10.441 0 32.699-20.478 60.615-49.309 71.623l-0.526 0.176z" />
<glyph unicode="&#xe91a;" glyph-name="first" data-tags="First" d="M882.72 904.16c-10.108 4.954-21.997 7.852-34.563 7.852-19.024 0-36.498-6.641-50.229-17.73l0.152 0.119-480-384c-18.318-14.784-29.938-37.235-29.938-62.4s11.619-47.616 29.785-62.281l0.152-0.119 480-384c13.54-10.935 30.952-17.565 49.912-17.6h0.008c44.183 0 80 35.817 80 80v0 768c0 0.026 0 0.056 0 0.087 0 31.555-18.27 58.844-44.809 71.864l-0.471 0.209zM176-16c-44.183 0-80 35.817-80 80v0 768c0 44.183 35.817 80 80 80s80-35.817 80-80v0-768c0-44.183-35.817-80-80-80v0z" />
<glyph unicode="&#xe91b;" glyph-name="prev" data-tags="Prev" d="M837.76 902.56c-10.911 5.944-23.897 9.439-37.699 9.439-16.541 0-31.91-5.020-44.666-13.62l0.285 0.181-576-384c-21.6-14.552-35.618-38.919-35.618-66.56s14.018-52.008 35.333-66.379l0.284-0.181 576-384c12.454-8.408 27.8-13.427 44.317-13.44h0.003c13.823 0.032 26.823 3.523 38.19 9.652l-0.43-0.212c25.332 13.764 42.24 40.171 42.24 70.528 0 0.011 0 0.023 0 0.034v-0.002 768c0 0.010 0 0.021 0 0.032 0 30.356-16.908 56.764-41.82 70.319l-0.42 0.209z" />
<glyph unicode="&#xe91c;" glyph-name="next" data-tags="Next" d="M844.32 514.56l-576 384c-12.458 8.394-27.805 13.399-44.32 13.399-44.168 0-79.976-35.794-80-79.956v-768.002c0-0.010 0-0.021 0-0.032 0-30.356 16.908-56.764 41.82-70.319l0.42-0.209c10.937-5.918 23.938-9.408 37.75-9.44h0.010c16.52 0.013 31.866 5.032 44.605 13.621l-0.285-0.181 576 384c21.6 14.552 35.618 38.919 35.618 66.56s-14.018 52.008-35.333 66.379l-0.284 0.181z" />
<glyph unicode="&#xe91d;" glyph-name="last" data-tags="Last" d="M141.28 904.16c10.108 4.954 21.997 7.852 34.563 7.852 19.024 0 36.498-6.641 50.229-17.73l-0.152 0.119 480-384c18.318-14.784 29.938-37.235 29.938-62.4s-11.619-47.616-29.785-62.281l-0.152-0.119-480-384c-13.54-10.935-30.952-17.565-49.912-17.6h-0.008c-44.183 0-80 35.817-80 80v0 768c0 0.026 0 0.056 0 0.087 0 31.555 18.27 58.844 44.809 71.864l0.471 0.209zM848-16c44.183 0 80 35.817 80 80v0 768c0 44.183-35.817 80-80 80s-80-35.817-80-80v0-768c0-44.183 35.817-80 80-80v0z" />
<glyph unicode="&#xe91e;" glyph-name="rollback" data-tags="rollback" d="M969.6 619.84c-71.384 187.133-249.379 317.649-457.857 317.649-269.957 0-488.8-218.843-488.8-488.8 0-139.829 58.713-265.944 152.831-355.038l0.225-0.211-128-157.44 394.080 40.8-40.8 394.24-124.16-152.8c-57.864 59.189-93.565 140.255-93.565 229.661 0 181.503 147.137 328.64 328.64 328.64s328.64-147.137 328.64-328.64c0-140.073-87.633-259.679-211.064-306.983l-2.251-0.758c-30.55-11.722-51.842-40.815-51.842-74.881 0-44.183 35.817-80 80-80 0.113 0 0.226 0 0.339 0.001h-0.017c0.061 0 0.132 0 0.204 0 10.048 0 19.657 1.879 28.495 5.304l-0.538-0.184c186.546 71.894 316.498 249.705 316.498 457.867 0 61.633-11.392 120.606-32.186 174.927l1.128-3.354zM492 413.28l166.24-96c5.761-3.276 12.647-5.228 19.985-5.28h0.015c14.74 0.040 27.616 7.983 34.618 19.813l0.102 0.187c3.371 5.725 5.363 12.612 5.363 19.964 0 14.735-7.999 27.601-19.892 34.494l-0.191 0.102-146.24 84.48v216.96c0 22.091-17.909 40-40 40s-40-17.909-40-40v0-240s0 0 0-1.28c-0.075-0.648-0.118-1.399-0.118-2.16s0.043-1.512 0.126-2.251l-0.008 0.091v-3.68c0-1.28 0.8-2.4 1.12-3.52l1.44-3.84c0.61-1.272 1.196-2.321 1.837-3.33l-0.077 0.13c0.732-1.327 1.421-2.425 2.162-3.483l-0.082 0.123 2.4-2.88c0.846-1.055 1.737-1.996 2.698-2.861l0.022-0.019c0.821-0.871 1.71-1.659 2.666-2.362l0.054-0.038 3.52-2.56c0.071 0.006 0.154 0.010 0.238 0.010 0.778 0 1.485-0.309 2.003-0.811l-0.001 0.001z" />
<glyph unicode="&#xe91f;" glyph-name="logout" data-tags="logout" d="M576 160h-192v640l-230.4 96h422.4v-172.48h64v236.48h-640v-864l384-160v160h256v236.48h-64v-172.48zM1024 528l-256 256v-124.48h-320v-263.040h320v-124.48l256 256z" />
<glyph unicode="&#xe920;" glyph-name="ellipsis" data-tags="ellipsis" d="M896 448c0-53.019-42.981-96-96-96s-96 42.981-96 96c0 53.019 42.981 96 96 96s96-42.981 96-96zM608 448c0-53.019-42.981-96-96-96s-96 42.981-96 96c0 53.019 42.981 96 96 96s96-42.981 96-96zM320 448c0-53.019-42.981-96-96-96s-96 42.981-96 96c0 53.019 42.981 96 96 96s96-42.981 96-96z" />
<glyph unicode="&#xe921;" glyph-name="ellipsis_v" data-tags="ellipsis_v" d="M608 736c0-53.019-42.981-96-96-96s-96 42.981-96 96c0 53.019 42.981 96 96 96s96-42.981 96-96zM608 448c0-53.019-42.981-96-96-96s-96 42.981-96 96c0 53.019 42.981 96 96 96s96-42.981 96-96zM608 160c0-53.019-42.981-96-96-96s-96 42.981-96 96c0 53.019 42.981 96 96 96s96-42.981 96-96z" />
<glyph unicode="&#xe922;" glyph-name="history" data-tags="history" horiz-adv-x="1027" d="M550.4 924.16c-233.28 0-428-168.64-468.48-390.4h-79.36l125.76-354.4 154.4 354.4h-90.24c38.72 161.6 184.48 282.24 357.76 282.24 202.88 0 368-165.12 368-368s-165.12-368-368-368c-98.24 0-190.72 38.24-260.16 107.84l-76.48-76.48c89.92-89.92 209.44-139.52 336.64-139.52 262.56 0 476.16 213.6 476.16 476.16s-213.44 476.16-476 476.16zM591.106 718.804c3.653-22.504-11.629-43.708-34.133-47.361s-43.708 11.629-47.361 34.133c-3.653 22.504 11.629 43.708 34.133 47.361s43.708-11.629 47.361-34.133zM566.224 222.097c21.063-8.725 31.065-32.872 22.341-53.935s-32.872-31.065-53.935-22.341c-21.063 8.725-31.065 32.872-22.341 53.935s32.872 31.065 53.935 22.341zM830.302 486.279c21.063-8.725 31.065-32.872 22.341-53.935s-32.872-31.065-53.935-22.341c-21.063 8.725-31.065 32.872-22.341 53.935s32.872 31.065 53.935 22.341zM412.96 569.44c-11.52-10.88-12.16-28.96-1.44-40.64l120.32-128.96v-0.32c0.96-0.8 1.6-1.44 2.4-2.080 0.16-0.16 0.48-0.32 0.64-0.48 0.64-0.48 1.28-0.96 1.92-1.44 0.32-0.16 0.64-0.48 0.96-0.64 0.64-0.32 1.28-0.8 1.76-1.12 0.32-0.16 0.64-0.32 0.96-0.48 0.64-0.32 1.28-0.64 1.92-0.8 0.32 0 0.64-0.32 1.12-0.32 0.64-0.16 1.28-0.48 2.080-0.64 0.32 0 0.64-0.16 1.12-0.32 0.64 0 1.44-0.32 2.24-0.32 0.32 0 0.64 0 0.96 0 0.96 0 1.92-0.16 2.88-0.16h0.16c0.8 0 1.6 0 2.4 0h0.48s1.28 0.16 1.92 0.32h0.64s1.12 0.32 1.76 0.48h0.8s1.12 0.64 1.76 0.8h0.64s1.44 0.8 2.24 1.12c0.16 0 0.48 0.32 0.64 0.32 0.48 0.32 0.96 0.48 1.44 0.8 0.32 0.16 0.64 0.32 0.8 0.48 0.32 0.16 0.48 0.32 0.8 0.48l231.36 162.88c12.96 9.12 16 27.040 6.88 40s-27.040 16-40 6.88l-210.88-148.48-103.52 110.88c-10.88 11.52-28.96 12.16-40.64 1.44z" />
<glyph unicode="&#xe923;" glyph-name="menuGroup" data-tags="menuGroup" d="M896 960h-768c-70.4 0-128-57.6-128-128v-768c0-70.4 57.6-128 128-128h768c70.4 0 128 57.6 128 128v768c0 70.4-57.6 128-128 128zM960 64c0-35.36-28.64-64-64-64h-768c-35.36 0-64 28.64-64 64v768c0 35.36 28.64 64 64 64h768c35.36 0 64-28.64 64-64v-768zM160 800h192v-192h-192v192zM416 800h192v-192h-192v192zM672 800h192v-192h-192v192zM160 544h192v-192h-192v192zM416 544h192v-192h-192v192zM672 544h192v-192h-192v192zM160 288h192v-192h-192v192zM416 288h192v-192h-192v192zM672 288h192v-192h-192v192z" />
<glyph unicode="&#xe924;" glyph-name="menuList" data-tags="menuList" d="M272 736c0-53.019-42.981-96-96-96s-96 42.981-96 96c0 53.019 42.981 96 96 96s96-42.981 96-96zM272 448c0-53.019-42.981-96-96-96s-96 42.981-96 96c0 53.019 42.981 96 96 96s96-42.981 96-96zM272 160c0-53.019-42.981-96-96-96s-96 42.981-96 96c0 53.019 42.981 96 96 96s96-42.981 96-96zM912 704h-512c-17.6 0-32 14.4-32 32s14.4 32 32 32h512c17.6 0 32-14.4 32-32s-14.4-32-32-32zM912 416h-512c-17.6 0-32 14.4-32 32s14.4 32 32 32h512c17.6 0 32-14.4 32-32s-14.4-32-32-32zM912 128h-512c-17.6 0-32 14.4-32 32s14.4 32 32 32h512c17.6 0 32-14.4 32-32s-14.4-32-32-32z" />
<glyph unicode="&#xe925;" glyph-name="star" data-tags="star" d="M512 174.72l-275.84-200.48c-37.28-27.040-56-13.44-41.76 30.4l105.44 324.32-276 200.48c-37.28 27.040-30.080 49.12 16 49.12h340.96l105.44 324.32c14.24 43.68 37.44 43.68 51.68 0l105.44-324.32h340.96c45.92 0 53.12-22.080 16-49.12l-275.84-200.48 105.44-324.32c14.24-43.68-4.64-57.44-41.76-30.4l-275.84 200.48z" />
<glyph unicode="&#xe926;" glyph-name="login" data-tags="login" d="M576 160h-192v640l-230.4 96h422.4v-156.48l64 68.48v152h-640v-864l384-160v160h256v168l-64 68.48v-172.48zM448 528l256-256v124.48h320v263.040h-320v124.48l-256-256z" />
<glyph unicode="&#xe927;" glyph-name="arrow01_left" data-tags="arrow01_left" d="M509.76 0c-16.96 0-33.92 6.56-46.88 19.52l-379.52 381.44c-25.92 26.080-25.92 68.16 0 94.24l379.52 381.28c25.92 26.080 67.84 26.080 93.76 0s25.92-68.16 0-94.24l-332.64-334.24 332.64-334.24c25.92-26.080 25.92-68.16 0-94.24-12.96-12.96-29.92-19.52-46.88-19.52zM893.76 0c-16.96 0-33.92 6.56-46.88 19.52l-379.52 381.44c-25.92 26.080-25.92 68.16 0 94.24l379.52 381.28c25.92 26.080 67.84 26.080 93.76 0s25.92-68.16 0-94.24l-332.64-334.24 332.64-334.24c25.92-26.080 25.92-68.16 0-94.24-12.96-12.96-29.92-19.52-46.88-19.52z" />
<glyph unicode="&#xe928;" glyph-name="arrow01_right" data-tags="arrow01_right" d="M514.24 896c16.96 0 33.92-6.56 46.88-19.52l379.52-381.44c25.92-26.080 25.92-68.16 0-94.24l-379.52-381.44c-25.92-26.080-67.84-26.080-93.76 0s-25.92 68.16 0 94.24l332.64 334.24-332.64 334.4c-25.92 26.080-25.92 68.16 0 94.24 12.96 12.96 29.92 19.52 46.88 19.52zM130.24 896c16.96 0 33.92-6.56 46.88-19.52l379.52-381.44c25.92-26.080 25.92-68.16 0-94.24l-379.52-381.28c-25.92-26.080-67.84-26.080-93.76 0s-25.92 68.16 0 94.24l332.64 334.24-332.64 334.24c-25.92 26.080-25.92 68.16 0 94.24 12.96 12.96 29.92 19.52 46.88 19.52z" />
<glyph unicode="&#xe929;" glyph-name="dashboard" data-tags="dashboard" d="M960 960h-896c-35.2 0-64-28.8-64-64v-896c0-35.2 28.8-64 64-64h896c35.2 0 64 28.8 64 64v896c0 35.2-28.8 64-64 64zM960 0h-896v896h896v-896zM329.44 443.68c46.88 0 89.44 19.040 120.16 49.76l-120.16 120.16v170.080c-93.92 0-170.080-76.16-170.080-170.080s76.16-170.080 170.080-170.080zM551.36 783.68h78.080v-340h-78.080v340zM668.96 662.88h78.080v-219.2h-78.080v219.2zM786.56 733.28h78.080v-289.6h-78.080v289.6zM204.16 353.44h628.48c10.604 0 19.2-8.596 19.2-19.2v-2.56c0-10.604-8.596-19.2-19.2-19.2h-628.48c-10.604 0-19.2 8.596-19.2 19.2v2.56c0 10.604 8.596 19.2 19.2 19.2zM204.16 253.28h628.48c10.604 0 19.2-8.596 19.2-19.2v-2.56c0-10.604-8.596-19.2-19.2-19.2h-628.48c-10.604 0-19.2 8.596-19.2 19.2v2.56c0 10.604 8.596 19.2 19.2 19.2zM204.16 153.28h628.48c10.604 0 19.2-8.596 19.2-19.2v-2.56c0-10.604-8.596-19.2-19.2-19.2h-628.48c-10.604 0-19.2 8.596-19.2 19.2v2.56c0 10.604 8.596 19.2 19.2 19.2z" />
<glyph unicode="&#xe92a;" glyph-name="oase" data-tags="oase" d="M898.080 64h-352v166.88l283.68 57.12v226.56c108.48 15.52 192 108.64 192 221.44 0.16 123.68-100.16 224-223.84 224s-224-100.32-224-224c0-112.8 83.52-205.92 192-221.44v-175.36l-507.68-102.24v149.6c108.48 15.52 192 108.64 192 221.44 0 123.68-100.32 224-224 224s-224.16-100.32-224.16-224c0-112.8 83.52-205.92 192-221.44v-226.56l288 57.92v-153.92h-352c-35.36 0-64-28.64-64-64s28.64-64 64-64h768c35.36 0 64 28.64 64 64s-28.64 64-64 64zM797.92 928c95.040 0 174.080-69.28 189.28-160h-378.72c15.2 90.72 94.4 160 189.28 160zM226.080 800c95.040 0 174.080-69.28 189.28-160h-378.56c15.2 90.72 94.4 160 189.28 160z" />
<glyph unicode="&#xe92b;" glyph-name="epoch" data-tags="epoch" d="M864 960v-64h-704v64h-160v-448h160v64h704v-64h160v448h-160zM864 768h-704v64h704v-64zM864 320h-704v64h-160v-448h160v64h704v-64h160v448h-160v-64zM864 192h-704v64h704v-64z" />
<glyph unicode="&#xe92c;" glyph-name="plus" data-tags="plus" d="M867.84 543.68h-260.16v260.16c0 25.12-20.48 45.6-45.6 45.6h-100.16c-25.12 0-45.6-20.48-45.6-45.6v-260.16h-260.16c-25.12 0-45.6-20.48-45.6-45.6v-100.16c0-25.12 20.48-45.6 45.6-45.6h260.16v-260.16c0-25.12 20.48-45.6 45.6-45.6h100.16c25.12 0 45.6 20.48 45.6 45.6v260.16h260.16c25.12 0 45.6 20.48 45.6 45.6v100.16c0 25.12-20.48 45.6-45.6 45.6z" />
<glyph unicode="&#xe92d;" glyph-name="minus" data-tags="minus" d="M117.76 543.68h788.32c25.184 0 45.6-20.416 45.6-45.6v-100c0-25.184-20.416-45.6-45.6-45.6h-788.32c-25.184 0-45.6 20.416-45.6 45.6v100c0 25.184 20.416 45.6 45.6 45.6z" />
<glyph unicode="&#xe92e;" glyph-name="circle" data-tags="circle" d="M944.64 448c0-238.88-193.76-432.64-432.64-432.64s-432.64 193.76-432.64 432.64 193.76 432.64 432.64 432.64 432.64-193.76 432.64-432.64zM512 722.080c-151.36 0-274.080-122.72-274.080-274.080s122.72-274.080 274.080-274.080 274.080 122.72 274.080 274.080-122.72 274.080-274.080 274.080z" />
<glyph unicode="&#xe92f;" glyph-name="cross" data-tags="cross" d="M648.48 449.28l238.24 238.24c17.76 17.76 17.76 46.72 0 64.48l-70.88 70.88c-17.76 17.76-46.72 17.76-64.48 0l-238.24-238.24-238.24 238.24c-17.76 17.76-46.72 17.76-64.48 0l-70.88-70.88c-17.76-17.76-17.76-46.72 0-64.48l238.24-238.24-238.24-238.24c-17.76-17.76-17.76-46.72 0-64.48l70.88-70.88c17.76-17.76 46.72-17.76 64.48 0l238.24 238.24 238.24-238.24c17.76-17.76 46.72-17.76 64.48 0l70.88 70.88c17.76 17.76 17.76 46.72 0 64.48l-238.24 238.24z" />
<glyph unicode="&#xe930;" glyph-name="check" data-tags="check" d="M873.76 846.56c-246.56-136.96-482.24-520-482.24-520l-214.080 255.68-142.4-127.84 308.96-404.96 141.12 4.64c152.32 456.64 518.4 792.48 518.4 792.48h-129.76z" />
<glyph unicode="&#xe931;" glyph-name="pause" data-tags="pause" d="M198.4 892.96h160.96c28.277 0 51.2-22.923 51.2-51.2v-787.68c0-28.277-22.923-51.2-51.2-51.2h-160.96c-28.277 0-51.2 22.923-51.2 51.2v787.68c0 28.277 22.923 51.2 51.2 51.2zM664.64 892.96h160.96c28.277 0 51.2-22.923 51.2-51.2v-787.68c0-28.277-22.923-51.2-51.2-51.2h-160.96c-28.277 0-51.2 22.923-51.2 51.2v787.68c0 28.277 22.923 51.2 51.2 51.2z" />
<glyph unicode="&#xe932;" glyph-name="clear" data-tags="clear" d="M511.68 902.4h0.64c31.812 0 57.6-25.788 57.6-57.6v-122.72c0-31.812-25.788-57.6-57.6-57.6h-0.64c-31.812 0-57.6 25.788-57.6 57.6v122.72c0 31.812 25.788 57.6 57.6 57.6zM190.419 769.068l0.453 0.453c22.494 22.494 58.965 22.494 81.459 0l86.776-86.776c22.494-22.494 22.494-58.965 0-81.459l-0.453-0.453c-22.494-22.494-58.965-22.494-81.459 0l-86.776 86.776c-22.494 22.494-22.494 58.965 0 81.459zM115.2 505.92h122.72c31.812 0 57.6-25.788 57.6-57.6v-0.64c0-31.812-25.788-57.6-57.6-57.6h-122.72c-31.812 0-57.6 25.788-57.6 57.6v0.64c0 31.812 25.788 57.6 57.6 57.6zM190.397 208.413l86.776 86.776c22.494 22.494 58.965 22.494 81.459 0l0.453-0.453c22.494-22.494 22.494-58.965 0-81.459l-86.776-86.776c-22.494-22.494-58.965-22.494-81.459 0l-0.453 0.453c-22.494 22.494-22.494 58.965 0 81.459zM511.68 231.52h0.64c31.812 0 57.6-25.788 57.6-57.6v-122.72c0-31.812-25.788-57.6-57.6-57.6h-0.64c-31.812 0-57.6 25.788-57.6 57.6v122.72c0 31.812 25.788 57.6 57.6 57.6zM664.889 294.715l0.453 0.453c22.494 22.494 58.965 22.494 81.459 0l86.776-86.776c22.494-22.494 22.494-58.965 0-81.459l-0.453-0.453c-22.494-22.494-58.965-22.494-81.459 0l-86.776 86.776c-22.494 22.494-22.494 58.965 0 81.459zM786.080 505.92h122.72c31.812 0 57.6-25.788 57.6-57.6v-0.64c0-31.812-25.788-57.6-57.6-57.6h-122.72c-31.812 0-57.6 25.788-57.6 57.6v0.64c0 31.812 25.788 57.6 57.6 57.6zM664.91 682.722l86.776 86.776c22.494 22.494 58.965 22.494 81.459 0l0.453-0.453c22.494-22.494 22.494-58.965 0-81.459l-86.776-86.776c-22.494-22.494-58.965-22.494-81.459 0l-0.453 0.453c-22.494 22.494-22.494 58.965 0 81.459z" />
<glyph unicode="&#xe933;" glyph-name="lock" data-tags="lock" d="M856.32 515.84h-58.88v99.84c0 162.4-126.88 294.4-282.88 294.4s-282.88-132-282.88-294.4v-99.84h-64c-17.6 0-31.68-14.24-31.68-31.68v-403.040c0-52.64 42.56-95.2 95.2-95.2h561.6c52.64 0 95.2 42.56 95.2 95.2v403.040c0 17.6-14.24 31.68-31.68 31.68zM308.48 615.68c0 120 92.48 217.6 206.080 217.6s206.080-97.6 206.080-217.6v-99.84h-412.16v99.84zM550.4 152.32c0-21.12-17.28-38.4-38.4-38.4v0c-21.12 0-38.4 17.28-38.4 38.4v179.2c0 21.12 17.28 38.4 38.4 38.4v0c21.12 0 38.4-17.28 38.4-38.4v-179.2z" />
<glyph unicode="&#xe934;" glyph-name="manual" data-tags="manual" d="M512 919.68c-203.84 69.92-390.080 36.64-512-37.6v-944.16c121.92 74.24 308.16 107.52 512 37.6 203.84 69.76 390.080 36.64 512-37.6v944.16c-121.92 74.24-308.16 107.52-512 37.6zM960 39.040c-69.28 25.28-146.080 38.88-224.16 38.88s-149.44-11.84-223.84-35.040c-74.24 23.2-149.44 35.040-223.84 35.040-78.080 0-154.88-13.44-224.16-38.88v805.28c65.28 32.32 143.52 49.76 224.16 49.76 67.040 0 135.36-11.68 203.040-34.88l20.8-7.040 20.8 7.040c67.68 23.2 136 34.88 203.040 34.88 80.64 0 159.040-17.6 224.16-49.76v-805.28zM574.24 738.080l-62.24-21.28-62.24 21.28c-54.24 18.56-108.64 28-161.6 28-32.96 0-65.6-3.84-96.16-11.2v-554.72c31.84 3.84 64.16 5.76 96.16 5.76 74.4 0 149.6-10.080 223.84-29.76 74.24 19.84 149.28 29.76 223.84 29.76 32.16 0 64.32-1.92 96.16-5.76v554.72c-30.56 7.36-63.36 11.2-96.16 11.2-52.96 0-107.36-9.44-161.6-28z" />
<glyph unicode="&#xe935;" glyph-name="update01" data-tags="update01" d="M913.6 506.88l34.080 328-132.32-107.52c-41.76 43.84-93.12 78.080-150.24 99.68-208.64 78.72-442.56-27.040-521.28-235.68-38.080-101.12-34.56-211.040 9.92-309.44s124.64-173.6 225.76-211.84c46.88-17.6 95.040-26.080 142.4-26.080 163.52 0 317.76 99.84 378.88 261.76 12.48 33.12-4.16 69.92-37.28 82.4s-69.92-4.16-82.4-37.28c-26.080-69.12-77.44-123.84-144.8-154.4-67.36-30.4-142.4-32.8-211.52-6.72-142.56 53.76-214.88 213.6-161.12 356.32 53.76 142.56 213.6 214.88 356.32 161.12 35.84-13.6 68.48-34.4 95.68-60.96l-129.92-105.6 328-33.92z" />
<glyph unicode="&#xe936;" glyph-name="return" data-tags="return" d="M555.84 875.52c-215.84 0-391.36-175.52-391.36-391.36v-263.68h-109.76l212.64-212.64 212.8 212.64h-109.76v263.68c0 102.24 83.2 185.44 185.44 185.44s185.44-83.2 185.44-185.44-83.2-185.44-185.44-185.44v-205.92c215.84 0 391.36 175.52 391.36 391.36s-175.52 391.36-391.36 391.36z" />
<glyph unicode="&#xe937;" glyph-name="search" data-tags="search" d="M582.56 602.88c12.48 2.72 20.48 15.2 17.76 27.68-26.24 119.040-144.32 194.56-263.36 168.48-12.48-2.72-20.48-15.2-17.76-27.68s15.2-20.48 27.68-17.76c94.080 20.64 187.36-39.040 208-133.12 2.72-12.48 15.2-20.48 27.68-17.76zM984.96 99.68l-227.2 227.2c-9.6 9.6-24.96 9.6-34.56 0l-13.76-13.76-52.8 52.8c105.92 136.64 96 334.72-29.28 460-136 136.16-357.44 136.16-493.44 0.16s-136-357.44 0-493.44c125.44-125.44 323.36-135.2 460-29.28l52.8-52.8-13.76-13.76c-9.6-9.6-9.6-24.96 0-34.56l227.2-227.2c9.6-9.6 24.96-9.6 34.56 0l89.92 89.92c9.6 9.6 9.6 24.96 0 34.56zM185.76 384.48c-107.52 107.52-107.52 282.24 0 389.76s282.24 107.52 389.76 0 107.52-282.24 0-389.76-282.24-107.52-389.76 0z" />
<glyph unicode="&#xe938;" glyph-name="exportImport" data-tags="export_import" d="M512 506.24h-448v362.080h448v91.68h-512v-1024h512v91.040h448v362.080h-448v116.96zM896 325.28v-234.080h-512.48v-106.88l-337.44 223.84 337.44 224v-106.88h512.48zM128 804.32v-234.080h512.48v-107.040l337.44 224-337.44 224v-106.88h-512.48z" />
<glyph unicode="&#xe939;" glyph-name="clock" data-tags="clock" d="M512 908.8c-254.080 0-460.8-206.72-460.8-460.8s206.72-460.8 460.8-460.8 460.8 206.72 460.8 460.8-206.72 460.8-460.8 460.8zM512 92c-196.32 0-356 159.68-356 356s159.68 356 356 356 356-159.68 356-356-159.68-356-356-356zM512 663.68c22.080 0 40 17.92 40 40s-17.92 40-40 40-40-17.92-40-40 17.92-40 40-40zM552 192.32c0-22.091-17.909-40-40-40s-40 17.909-40 40c0 22.091 17.909 40 40 40s40-17.909 40-40zM807.68 448c0-22.091-17.909-40-40-40s-40 17.909-40 40c0 22.091 17.909 40 40 40s40-17.909 40-40zM256.32 488c-22.080 0-40-17.92-40-40s17.92-40 40-40 40 17.92 40 40-17.92 40-40 40zM494.24 401.44h0.16c0.64-0.96 1.44-1.6 2.080-2.24 0.16-0.16 0.48-0.32 0.64-0.48 0.64-0.48 1.28-0.96 1.92-1.44 0.32-0.16 0.64-0.32 0.96-0.64 0.64-0.32 1.12-0.64 1.76-0.96 0.32-0.16 0.64-0.32 0.96-0.48 0.64-0.32 1.28-0.64 1.92-0.8 0.32 0 0.64-0.32 1.12-0.32 0.64-0.16 1.28-0.48 1.92-0.64 0.32 0 0.64-0.16 1.12-0.32 0.64 0 1.44-0.32 2.080-0.32 0.32 0 0.64 0 0.96 0 0.96 0 1.92-0.16 2.88-0.16 0 0 0 0 0.16 0 0.8 0 1.6 0 2.4 0 0.16 0 0.32 0 0.48 0 0.64 0 1.28 0 1.92 0.32 0.16 0 0.48 0 0.64 0 0.64 0 1.12 0.32 1.76 0.32 0.16 0 0.48 0 0.64 0.16 0.64 0.16 1.12 0.32 1.76 0.64 0.16 0 0.32 0 0.64 0.16 0.8 0.32 1.44 0.64 2.24 0.96 0.16 0 0.48 0.16 0.64 0.32 0.48 0.32 0.96 0.48 1.44 0.8 0.32 0.16 0.48 0.32 0.8 0.48s0.48 0.32 0.8 0.48l223.84 157.76c12.48 8.8 15.52 26.24 6.72 38.72s-26.24 15.52-38.72 6.72l-204-143.68-100.16 107.36c-10.4 11.2-28 11.84-39.2 1.28-11.2-10.4-11.84-28-1.28-39.2l116.48-124.8s0 0 0 0z" />
<glyph unicode="&#xe93a;" glyph-name="circle_doubleExclamation" data-tags="circle_double-exclamation" d="M972.8 448c0-254.56-206.24-460.8-460.8-460.8s-460.8 206.24-460.8 460.8 206.24 460.8 460.8 460.8 460.8-206.24 460.8-460.8zM468.96 747.52c0.16 7.2-4.8 13.28-11.2 13.28h-126.72c-6.4 0-11.36-5.92-11.2-13.28l10.88-426.4c0.16-7.2 5.6-13.28 11.84-13.28h103.68c6.4 0 11.68 5.92 11.84 13.28l10.88 426.4zM394.4 257.28c-40.64 0-73.76-32.96-73.76-73.76s32.96-73.76 73.76-73.76 73.76 32.96 73.76 73.76-32.96 73.76-73.76 73.76zM704 747.52c0.16 7.2-4.8 13.28-11.2 13.28h-126.72c-6.4 0-11.36-5.92-11.2-13.28l10.88-426.4c0.16-7.2 5.6-13.28 11.84-13.28h103.68c6.4 0 11.68 5.92 11.84 13.28l10.88 426.4zM629.44 257.28c-40.64 0-73.76-32.96-73.76-73.76s32.96-73.76 73.76-73.76 73.76 32.96 73.76 73.76-32.96 73.76-73.76 73.76z" />
<glyph unicode="&#xe93b;" glyph-name="circle_exclamation" data-tags="circle_circle_exclamation" d="M972.8 448c0-254.56-206.24-460.8-460.8-460.8s-460.8 206.24-460.8 460.8 206.24 460.8 460.8 460.8 460.8-206.24 460.8-460.8zM586.56 747.36c0.16 7.2-4.8 13.28-11.2 13.28h-126.72c-6.4 0-11.36-5.92-11.2-13.28l10.88-426.4c0.16-7.2 5.6-13.28 11.84-13.28h103.68c6.4 0 11.68 5.92 11.84 13.28l10.88 426.4zM512 257.12c-40.64 0-73.76-32.96-73.76-73.76s32.96-73.76 73.76-73.76 73.76 32.96 73.76 73.76-32.96 73.76-73.76 73.76z" />
<glyph unicode="&#xe93c;" glyph-name="circle_info" data-tags="circle_info" d="M972.8 448c0-254.56-206.24-460.8-460.8-460.8s-460.8 206.24-460.8 460.8 206.24 460.8 460.8 460.8 460.8-206.24 460.8-460.8zM586.56 496c0.16 6.4-4.8 11.52-11.2 11.52h-126.72c-6.4 0-11.36-5.12-11.2-11.52l10.88-370.88c0.16-6.4 5.6-11.52 11.84-11.52h103.68c6.4 0 11.68 5.12 11.84 11.52l10.88 370.88zM512 774.72c-58.56 0-105.92-47.52-105.92-105.92s47.52-105.92 105.92-105.92 105.92 47.52 105.92 105.92-47.52 105.92-105.92 105.92z" />
<glyph unicode="&#xe93d;" glyph-name="square_prev" data-tags="square_prev" d="M181.92 880.48h660.16c56.48 0 102.4-45.92 102.4-102.4v-660.16c0-56.48-45.92-102.4-102.4-102.4h-660.16c-56.48 0-102.4 45.92-102.4 102.4v660.16c0 56.48 45.92 102.4 102.4 102.4zM667.36 218.24c24.48-13.92 44.64-2.080 44.64 26.080v407.36c0 28.16-20 39.84-44.64 26.080l-361.92-204.48c-24.48-13.92-24.48-36.48 0-50.4l361.92-204.48z" />
<glyph unicode="&#xe93e;" glyph-name="square_next" data-tags="square_next" d="M842.080 15.52h-660.16c-56.48 0-102.4 45.92-102.4 102.4v660.16c0 56.48 45.92 102.4 102.4 102.4h660.16c56.48 0 102.4-45.92 102.4-102.4v-660.16c0-56.48-45.92-102.4-102.4-102.4zM356.64 677.76c-24.48 13.92-44.64 2.080-44.64-26.080v-407.52c0-28.16 20-39.84 44.64-26.080l361.92 204.48c24.48 13.92 24.48 36.48 0 50.4l-361.92 204.48z" />
<glyph unicode="&#xe93f;" glyph-name="square_pause" data-tags="square_pause" d="M856.16 15.52h-660.16c-56.48 0-102.4 45.92-102.4 102.4v660.16c0 56.48 45.92 102.4 102.4 102.4h660.16c56.48 0 102.4-45.92 102.4-102.4v-660.16c0-56.48-45.92-102.4-102.4-102.4zM448.8 661.92c0 14.080-11.52 25.6-25.6 25.6h-79.68c-14.080 0-25.6-11.52-25.6-25.6v-427.84c0-14.080 11.52-25.6 25.6-25.6h79.68c14.080 0 25.6 11.52 25.6 25.6v427.84zM734.4 661.92c0 14.080-11.52 25.6-25.6 25.6h-79.68c-14.080 0-25.6-11.52-25.6-25.6v-427.84c0-14.080 11.52-25.6 25.6-25.6h79.68c14.080 0 25.6 11.52 25.6 25.6v427.84z" />
<glyph unicode="&#xe940;" glyph-name="stop" data-tags="stop" d="M1024 448c0-282.72-229.28-512-512-512s-512 229.28-512 512 229.28 512 512 512 512-229.28 512-512zM914.88 548h-805.76v-199.84h805.76v199.84z" />
<glyph unicode="&#xe941;" glyph-name="align_left" data-tags="align_left" d="M64 895.2h61.6v-896h-61.6v896zM950.88 478.080h-477.44v211.52l-281.76-241.6 281.76-241.6v210.080h477.44v61.6z" />
<glyph unicode="&#xe942;" glyph-name="align_center" data-tags="align_center" d="M481.28 895.2h61.6v-896h-61.6v896zM656.96 448l281.76-241.6v483.2l-281.76-241.6zM85.28 206.4l281.76 241.6-281.76 241.6v-483.2z" />
<glyph unicode="&#xe943;" glyph-name="align_right" data-tags="align_right" d="M898.4 896.8h61.6v-896h-61.6v896zM550.56 479.52h-477.44v-61.6h477.44v-211.52l281.76 241.6-281.76 241.6v-210.080z" />
<glyph unicode="&#xe944;" glyph-name="align_top" data-tags="align_top" d="M63.2 896h896v-61.6h-896v61.6zM512 768.32l-241.6-281.76h210.080v-477.44h61.6v477.44h211.52l-241.6 281.76z" />
<glyph unicode="&#xe945;" glyph-name="align_horizonal" data-tags="align_horizonal" d="M63.2 478.72h896v-61.6h-896v61.6zM270.4 21.28h483.2l-241.6 281.76-241.6-281.76zM753.6 874.72h-483.2l241.6-281.76 241.6 281.76z" />
<glyph unicode="&#xe946;" glyph-name="align_bottom" data-tags="align_bottom" d="M64.8 61.6h896v-61.6h-896v61.6zM512 127.68l241.6 281.76h-210.080v477.44h-61.6v-477.44h-211.52l241.6-281.76z" />
<glyph unicode="&#xe947;" glyph-name="algin_equally_horizonal" data-tags="algin_equally_horizonal" d="M149.76 896.8h61.6v-896h-61.6v896zM812.8 896.8h61.6v-896h-61.6v896zM404 896.8h216v-216h-216v216zM404 556h216v-216h-216v216zM404 215.36h216v-216h-216v216z" />
<glyph unicode="&#xe948;" glyph-name="algin_equally_vertical" data-tags="algin_equally_vertical" d="M63.2 147.2h896v-61.6h-896v61.6zM63.2 810.24h896v-61.6h-896v61.6zM64.8 555.68h215.36v-215.36h-215.36v215.36zM404.32 555.68h215.36v-215.36h-215.36v215.36zM744 555.68h215.36v-215.36h-215.36v215.36z" />
<glyph unicode="&#xe949;" glyph-name="note" data-tags="note" d="M960 960h-896c-35.2 0-64-28.8-64-64v-896c0-35.2 28.8-64 64-64h896c35.2 0 64 28.8 64 64v896c0 35.2-28.8 64-64 64zM960 0h-896v896h896v-896zM204.16 406.88h628.48c10.604 0 19.2-8.596 19.2-19.2v-2.56c0-10.604-8.596-19.2-19.2-19.2h-628.48c-10.604 0-19.2 8.596-19.2 19.2v2.56c0 10.604 8.596 19.2 19.2 19.2zM204.16 787.2h628.48c10.604 0 19.2-8.596 19.2-19.2v-2.56c0-10.604-8.596-19.2-19.2-19.2h-628.48c-10.604 0-19.2 8.596-19.2 19.2v2.56c0 10.604 8.596 19.2 19.2 19.2zM204.16 660.32h628.48c10.604 0 19.2-8.596 19.2-19.2v-2.56c0-10.604-8.596-19.2-19.2-19.2h-628.48c-10.604 0-19.2 8.596-19.2 19.2v2.56c0 10.604 8.596 19.2 19.2 19.2zM204.16 533.6h628.48c10.604 0 19.2-8.596 19.2-19.2v-2.56c0-10.604-8.596-19.2-19.2-19.2h-628.48c-10.604 0-19.2 8.596-19.2 19.2v2.56c0 10.604 8.596 19.2 19.2 19.2zM204.16 280h628.48c10.604 0 19.2-8.596 19.2-19.2v-2.56c0-10.604-8.596-19.2-19.2-19.2h-628.48c-10.604 0-19.2 8.596-19.2 19.2v2.56c0 10.604 8.596 19.2 19.2 19.2zM204.16 153.28h628.48c10.604 0 19.2-8.596 19.2-19.2v-2.56c0-10.604-8.596-19.2-19.2-19.2h-628.48c-10.604 0-19.2 8.596-19.2 19.2v2.56c0 10.604 8.596 19.2 19.2 19.2z" />
<glyph unicode="&#xe94a;" glyph-name="workspace" data-tags="workspace" d="M960 960h-896c-35.2 0-64-28.8-64-64v-896c0-35.2 28.8-64 64-64h896c35.2 0 64 28.8 64 64v896c0 35.2-28.8 64-64 64zM960 0h-896v896h896v-896zM128 832h192v-768h-192v768zM384 832h512v-512h-512v512zM384 256h512v-192h-512v192z" />
<glyph unicode="&#xe94b;" glyph-name="attention" data-tags="attention" d="M1011.84 88.64l-448.32 770.88c-28.32 48.8-74.88 48.8-103.2 0l-448.16-770.88c-28.32-48.8-5.44-88.64 51.040-88.64h897.6c56.48 0 79.36 40 51.040 88.64zM512 101.92c-34.24 0-62.080 27.84-62.080 62.080s27.84 62.080 62.080 62.080 62.080-27.84 62.080-62.080-27.84-62.080-62.080-62.080zM565.6 279.68c0-6.080-4.64-11.2-9.92-11.2h-87.2c-5.28 0-9.76 4.96-9.92 11.2l-9.12 358.56c0 6.080 4 11.2 9.44 11.2h106.56c5.28 0 9.6-4.96 9.44-11.2l-9.12-358.56z" />
<glyph unicode="&#xe94c;" glyph-name="message" data-tags="message" d="M933.44 949.12h-842.88c-49.76 0-90.56-40.8-90.56-90.56v-590.56c0-49.92 40.8-90.56 90.56-90.56h516.16l227.2-227.2c7.2-7.2 19.52-2.080 19.52 8.16v219.040h80c49.92 0 90.56 40.8 90.56 90.56v590.56c0 49.92-40.8 90.56-90.56 90.56zM248.16 500c-35.040 0-63.36 28.32-63.36 63.36s28.32 63.36 63.36 63.36 63.36-28.32 63.36-63.36-28.32-63.36-63.36-63.36zM512 500c-35.040 0-63.36 28.32-63.36 63.36s28.32 63.36 63.36 63.36 63.36-28.32 63.36-63.36-28.32-63.36-63.36-63.36zM775.84 500c-35.040 0-63.36 28.32-63.36 63.36s28.32 63.36 63.36 63.36 63.36-28.32 63.36-63.36-28.32-63.36-63.36-63.36z" />
<glyph unicode="&#xe94d;" glyph-name="message_q" data-tags="message_q" d="M933.44 949.12h-842.88c-49.76 0-90.56-40.8-90.56-90.56v-590.56c0-49.92 40.8-90.56 90.56-90.56h516.16l227.2-227.2c7.2-7.2 19.52-2.080 19.52 8.16v219.040h80c49.92 0 90.56 40.8 90.56 90.56v590.56c0 49.92-40.8 90.56-90.56 90.56zM690.080 652.48c-6.88-31.68-30.72-61.92-70.88-89.92l-34.080-24c-14.56-9.92-21.6-20.8-21.6-33.12v-43.2c0-6.24-5.6-11.2-12.48-11.2h-80.64c-6.88 0-12.48 5.12-12.48 11.2v33.6c0 43.52 15.84 75.84 46.88 96.16l60.64 42.88c12.96 9.92 21.12 22.24 24.16 36.8 4.48 17.76 2.24 33.92-6.56 48.48-15.52 23.36-36 34.72-62.72 34.72-6.72 0-13.92-0.8-21.44-2.24-39.2-8.48-63.2-36-71.52-81.6-0.96-5.44-6.080-9.44-12.32-9.44h-74.080c-3.2 0-6.4 1.12-8.64 3.2-2.4 2.24-3.84 5.12-3.84 8.32 1.28 53.76 24.16 98.88 68.16 134.080h0.32c34.56 24.64 73.12 36.96 114.56 36.96 9.12 0 18.56-0.64 28-1.76 57.44-6.72 100.32-30.24 127.36-70.24 26.88-39.68 34.56-79.84 22.88-119.68zM578.080 354.56c0-36.48-29.6-65.92-65.92-65.92s-65.92 29.6-65.92 65.92 29.6 65.92 65.92 65.92 65.92-29.6 65.92-65.92z" />
<glyph unicode="&#xe94e;" glyph-name="expansion" data-tags="expansion" d="M1021.6-44.16c0.48 1.12 0.64 2.080 0.96 3.2 0.32 0.96 0.64 1.76 0.8 2.72 0.48 2.080 0.64 4.16 0.64 6.24v256c0 17.6-14.4 32-32 32s-32-14.4-32-32v-178.72l-178.4 178.4c1.44 5.28 2.4 10.72 2.4 16.32v416c0 35.2-28.8 64-64 64h-416c-6.080 0-12-1.12-17.6-2.72-1.28 2.24-2.88 4.48-4.8 6.4l-172.32 172.32h178.72c17.6 0 32 14.4 32 32s-14.4 32-32 32h-256c-2.080 0-4.16-0.16-6.24-0.64-0.96-0.16-1.92-0.48-2.72-0.8-1.12-0.32-2.080-0.64-3.2-0.96-1.12-0.48-2.080-1.12-3.2-1.6-0.8-0.48-1.6-0.8-2.4-1.28-3.52-2.4-6.56-5.44-8.8-8.8-0.48-0.8-0.8-1.6-1.28-2.4-0.48-0.96-1.12-1.92-1.6-3.040s-0.64-2.080-0.96-3.2c-0.32-0.96-0.64-1.76-0.8-2.72-0.48-2.080-0.64-4.16-0.64-6.24v-256.32c0-17.6 14.4-32 32-32s32 14.4 32 32v178.72l172.32-172.32c1.92-1.92 4.16-3.52 6.4-4.8-1.6-5.6-2.72-11.36-2.72-17.6v-416c0-35.2 28.8-64 64-64h416c5.76 0 11.040 0.96 16.32 2.4l178.4-178.4h-178.72c-17.6 0-32-14.4-32-32s14.4-32 32-32h256c2.080 0 4.16 0.16 6.24 0.64 0.96 0.16 1.92 0.48 2.72 0.8 1.12 0.32 2.080 0.64 3.2 0.96 1.12 0.48 2.080 1.12 3.2 1.6 0.8 0.48 1.6 0.8 2.4 1.28 3.52 2.4 6.56 5.44 8.8 8.8 0.48 0.8 0.8 1.6 1.28 2.4 0.48 0.96 1.12 1.92 1.6 3.040zM304 656h416v-416h-416v416z" />
<glyph unicode="&#xe94f;" glyph-name="shrink" data-tags="shrink" d="M960 960h-896c-35.2 0-64-28.8-64-64v-896c0-35.2 28.8-64 64-64h896c35.2 0 64 28.8 64 64v896c0 35.2-28.8 64-64 64zM64 850.72l306.72-306.72h-182.56c-17.6 0-32-14.4-32-32s14.4-32 32-32h256c9.44 0 17.76 4.16 23.52 10.56 0.32 0.32 0.64 0.48 0.96 0.8 8.96 8.96 11.36 22.080 7.36 33.28v243.36c0 17.6-14.4 32-32 32s-32-14.4-32-32v-174.88l-302.72 302.88h850.72v-850.72l-306.72 306.72h178.72c17.6 0 32 14.4 32 32s-14.4 32-32 32h-256c-2.080 0-4.16-0.16-6.24-0.64-0.96-0.16-1.92-0.48-2.72-0.8-1.12-0.32-2.080-0.64-3.2-0.96-1.12-0.48-2.080-1.12-3.2-1.6-0.8-0.48-1.6-0.8-2.4-1.28-3.52-2.4-6.56-5.44-8.8-8.8-0.48-0.8-0.8-1.6-1.28-2.4-0.48-0.96-1.12-1.92-1.6-3.040s-0.64-2.080-0.96-3.2c-0.32-0.96-0.64-1.76-0.8-2.72-0.48-2.080-0.64-4.16-0.64-6.24v-256c0-17.6 14.4-32 32-32s32 14.4 32 32v178.72l306.72-306.72h-850.88v850.4z" />
<glyph unicode="&#xe950;" glyph-name="sort" data-tags="sort" horiz-adv-x="515" d="M257.161 959.199c-8.487 0-17.133-5.604-23.538-16.813l-228.018-395.189c-12.97-22.418-2.402-40.832 23.538-40.832h456.196c25.94 0 36.509 18.414 23.538 40.832l-228.178 395.189c-6.405 11.209-15.052 16.813-23.538 16.813v0zM485.339 388.674h-456.357c-25.94 0-36.509-18.414-23.538-40.832l228.178-395.189c6.405-11.209 15.052-16.813 23.538-16.813s17.133 5.604 23.538 16.813l228.178 395.189c12.97 22.418 2.402 40.832-23.538 40.832v0z" />
<glyph unicode="&#xe951;" glyph-name="pipeline" data-tags="pipeline" d="M960 960h-896c-35.2 0-64-28.8-64-64v-896c0-35.2 28.8-64 64-64h896c35.2 0 64 28.8 64 64v896c0 35.2-28.8 64-64 64zM960 0h-896v896h896v-896zM208 512c26.4 0 48 21.6 48 48v224c0 26.4-21.6 48-48 48s-48-21.6-48-48v-224c0-26.4 21.6-48 48-48zM816 512c26.4 0 48 21.6 48 48v224c0 26.4-21.6 48-48 48s-48-21.6-48-48v-224c0-26.4 21.6-48 48-48zM208 64c26.4 0 48 21.6 48 48v224c0 26.4-21.6 48-48 48s-48-21.6-48-48v-224c0-26.4 21.6-48 48-48zM816 64c26.4 0 48 21.6 48 48v224c0 26.4-21.6 48-48 48s-48-21.6-48-48v-224c0-26.4 21.6-48 48-48zM304 768h416v-192h-416v192zM304 320h416v-192h-416v192z" />
<glyph unicode="&#xe952;" glyph-name="sort_asc" data-tags="sort_asc" horiz-adv-x="515" d="M257.161 959.199c-8.487 0-17.133-5.604-23.538-16.813l-228.018-395.189c-12.97-22.418-2.402-40.832 23.538-40.832h456.196c25.94 0 36.509 18.414 23.538 40.832l-228.178 395.189c-6.405 11.209-15.052 16.813-23.538 16.813v0z" />
<glyph unicode="&#xe953;" glyph-name="sort_desc" data-tags="sort_desc" horiz-adv-x="515" d="M485.339 388.674h-456.357c-25.94 0-36.509-18.414-23.538-40.832l228.178-395.189c6.405-11.209 15.052-16.813 23.538-16.813s17.133 5.604 23.538 16.813l228.178 395.189c12.97 22.418 2.402 40.832-23.538 40.832v0z" />
<glyph unicode="&#xe954;" glyph-name="mouse" data-tags="mouse" d="M128 320.48c0-211.2 172.8-384 384-384s384 172.8 384 384v64h-768v-64zM486.72 489.12c-49.44 3.68-88.16 45.28-88.16 94.56v225.44c0 49.28 38.72 90.88 88.16 94.56h1.28s0 55.84 0 55.84c-200.16-12.48-360-180-360-383.040v-144h360v56.64h-0.64s-0.64 0-0.64 0zM536 959.52v-56h0.96s0.8 0 0.8 0c48.48-5.28 84.96-45.92 84.96-94.24v-225.6c0-48.48-36.48-88.96-84.96-94.24h-1.6s0 0 0 0v-56.8h360v144c-0.16 202.88-160 370.4-360.16 382.88zM489.28 536.96c-24 2.4-42.56 22.72-42.56 46.56v225.6c0 24 18.56 44.16 42.56 46.56l44.64-0.32c23.36-3.36 40.64-23.040 40.64-46.4v-225.6c0-23.36-17.44-43.040-40.64-46.4l-44.64-0.32z" />
<glyph unicode="&#xe955;" glyph-name="mouse_left" data-tags="mouse_left" d="M486.72 489.12c-49.44 3.68-88.16 45.28-88.16 94.56v225.44c0 49.28 38.72 90.88 88.16 94.56h1.28s0 55.84 0 55.84c-200.16-12.48-360-180-360-383.040v-144h360v56.64h-0.64s-0.64 0-0.64 0z" />
<glyph unicode="&#xe956;" glyph-name="organization" data-tags="organization" d="M640 832c0-70.692-57.308-128-128-128s-128 57.308-128 128c0 70.692 57.308 128 128 128s128-57.308 128-128zM640 64c0-70.692-57.308-128-128-128s-128 57.308-128 128c0 70.692 57.308 128 128 128s128-57.308 128-128zM1024 64c0-70.692-57.308-128-128-128s-128 57.308-128 128c0 70.692 57.308 128 128 128s128-57.308 128-128zM256 64c0-70.692-57.308-128-128-128s-128 57.308-128 128c0 70.692 57.308 128 128 128s128-57.308 128-128zM128 224c17.6 0 32 14.4 32 32v160h320v-160c0-17.6 14.4-32 32-32s32 14.4 32 32v160h320v-160c0-17.6 14.4-32 32-32s32 14.4 32 32v192c0 17.6-14.4 32-32 32h-352v160c0 17.6-14.4 32-32 32s-32-14.4-32-32v-160h-352c-17.6 0-32-14.4-32-32v-192c0-17.6 14.4-32 32-32z" />
<glyph unicode="&#xe957;" glyph-name="role" data-tags="role" d="M832 447.84l192 288h-896v37.76c37.28 13.12 64 48.64 64 90.4 0 52.96-43.040 96-96 96s-96-43.040-96-96c0-41.76 26.72-77.28 64-90.4v-805.6c0-17.6 14.4-32 32-32s32 14.4 32 32v191.84h896l-192 288z" />
<glyph unicode="&#xe958;" glyph-name="copy" data-tags="copy" d="M555.2 89.92h-401.28v401.28h153.6v97.28h-185.6c-36 0-65.28-29.28-65.28-65.28v-465.28c0-36 29.28-65.28 65.28-65.28h465.28c36 0 65.28 29.28 65.28 65.28v185.6h-97.28v-153.6zM902.080 903.36h-465.28c-36 0-65.28-29.28-65.28-65.28v-465.28c0-36 29.28-65.28 65.28-65.28h465.28c36 0 65.28 29.28 65.28 65.28v465.28c0 36-29.28 65.28-65.28 65.28zM870.080 806.080v-401.28h-401.28v401.28h401.28z" />
<glyph unicode="&#xe959;" glyph-name="mouse_right" data-tags="mouse_right" d="M536 959.52v-56h0.96s0.8 0 0.8 0c48.48-5.28 84.96-45.92 84.96-94.24v-225.6c0-48.48-36.48-88.96-84.96-94.24h-1.6s0 0 0 0v-56.8h360v144c-0.16 202.88-160 370.4-360.16 382.88z" />
<glyph unicode="&#xe95a;" glyph-name="mouse_wheel" data-tags="mouse_wheel" d="M489.28 536.96c-24 2.4-42.56 22.72-42.56 46.56v225.6c0 24 18.56 44.16 42.56 46.56l44.64-0.32c23.36-3.36 40.64-23.040 40.64-46.4v-225.6c0-23.36-17.44-43.040-40.64-46.4l-44.64-0.32z" />
<glyph unicode="&#xe95b;" glyph-name="arrow02_bottom" data-tags="arrow02_bottom" d="M960 637.76c0-16.96-6.56-33.92-19.52-46.88l-381.44-379.52c-26.080-25.92-68.16-25.92-94.24 0l-381.28 379.52c-26.080 25.92-26.080 67.84 0 93.76s68.16 25.92 94.24 0l334.24-332.64 334.24 332.64c26.080 25.92 68.16 25.92 94.24 0 12.96-12.96 19.52-29.92 19.52-46.88z" />
<glyph unicode="&#xe95c;" glyph-name="arrow02_top" data-tags="arrow02_top" d="M64 258.24c0 16.96 6.56 33.92 19.52 46.88l381.44 379.52c26.080 25.92 68.16 25.92 94.24 0l381.44-379.52c26.080-25.92 26.080-67.84 0-93.76s-68.16-25.92-94.24 0l-334.24 332.64-334.4-332.64c-26.080-25.92-68.16-25.92-94.24 0-12.96 12.96-19.52 29.92-19.52 46.88z" />
</font>
</defs>
</svg>
